<svg width="45" height="43" viewBox="0 0 45 43" xmlns="http://www.w3.org/2000/svg"><title>Cloud-Refresh</title><path d="M36.908 31.952c-.068-1.402-.34-2.746-.791-4.01 2.83-1.229 4.824-4.018 4.824-7.3 0-4.418-3.58-8-7.998-8-1.6 0-3.084.481-4.334 1.29-1.23-5.316-5.973-9.289-11.664-9.289-6.627 0-11.999 5.371-11.999 11.998 0 4.172 2.143 7.828 5.375 9.976-.588 1.23-.999 2.559-1.207 3.957-4.87-2.742-8.168-7.946-8.168-13.933 0-8.835 7.163-15.998 15.999-15.998 6.004 0 11.229 3.312 13.965 8.204.664-.114 1.336-.205 2.033-.205 6.627 0 11.998 5.372 11.998 12 0 5.234-3.357 9.673-8.033 11.31zm-13.963-9.686v.018h2.984l-2.227-2.227c-.781-.781-.781-2.047 0-2.829.779-.78 2.047-.78 2.826 0l5.656 5.657c.781.78.781 2.046 0 2.827l-5.656 5.656c-.779.781-2.047.781-2.826 0-.781-.781-.781-2.047 0-2.828l2.258-2.258h-3.016c-3.314 0-6 2.686-6 6 0 3.312 2.686 5.998 6 5.998 3.312 0 5.998-2.686 5.998-5.998l-.045-.453 3.312-3.312c.469 1.158.732 2.422.732 3.748 0 5.523-4.477 10-9.998 10-5.523 0-10-4.477-10-10 .003-5.522 4.479-9.999 10.002-9.999z" fill="none" stroke="#000"/></svg>