<svg width="36" height="26" viewBox="0 0 36 26" xmlns="http://www.w3.org/2000/svg"><title>degrees-celcius</title><path d="M26.497 4.499c-2.209 0-4 1.791-4 4v7.999c0 2.209 1.791 3.999 4 3.999s4-1.79 4-3.999h3.998c0 4.418-3.58 7.999-7.998 7.999s-8-3.581-8-7.999v-7.999c0-4.418 3.582-7.999 8-7.999s7.998 3.581 7.998 7.999h-3.998c0-2.209-1.791-4-4-4zm-18.999 9.999c-3.865 0-6.998-3.134-6.998-6.999 0-3.865 3.133-6.999 6.998-6.999 3.866 0 7 3.134 7 6.999 0 3.865-3.133 6.999-7 6.999zm0-9.999c-1.656 0-2.999 1.344-2.999 3s1.343 3 2.999 3c1.657 0 3-1.344 3-3s-1.342-3-3-3z" fill="#000"/></svg>