<svg width="45" height="44" viewBox="0 0 45 44" xmlns="http://www.w3.org/2000/svg"><title>drizzle-moon</title><path d="M43.994 26.995c0 6.627-5.372 11.998-11.998 11.998h-1c0-1.371-.319-2.742-.943-3.998h1.943c4.417 0 7.999-3.582 7.999-8 0-4.417-3.582-7.999-7.999-7.999-1.601 0-3.084.48-4.334 1.291-1.231-5.317-5.973-9.29-11.664-9.29-6.627 0-11.999 5.372-11.999 11.998 0 1.406.254 2.748.697 4h-.004c1.437 4.053 4.987 7.104 9.331 7.824-.638 1.215-.969 2.547-1.012 3.887-6.097-1.152-10.964-5.76-12.498-11.711h.011c-.33-1.279-.524-2.615-.524-4 0-8.835 7.162-15.997 15.998-15.997 2.002 0 3.914.375 5.679 1.047 1.636-4.682 6.079-8.047 11.319-8.047.755 0 1.49.078 2.207.212-.132.575-.208 1.173-.208 1.788 0 4.418 3.582 7.999 7.999 7.999.616 0 1.213-.076 1.788-.208.134.717.212 1.453.212 2.207 0 3.135-1.212 5.979-3.18 8.116 1.37 1.95 2.18 4.32 2.18 6.883zm-12.787-22.79c-2.899.664-5.174 2.91-5.924 5.775 1.917 1.372 3.522 3.152 4.68 5.221.664-.113 1.336-.205 2.033-.205 2.617 0 5.032.848 7.005 2.271.858-.98 1.485-2.168 1.786-3.482-4.854-.904-8.676-4.724-9.58-9.58zm-9.21 27.719l3.535 3.535c1.952 1.951 1.952 5.117 0 7.068-1.952 1.953-5.118 1.953-7.07 0-1.952-1.951-1.952-5.117 0-7.068l3.535-3.535z" fill="none" stroke="#000"/></svg>