<svg width="56" height="58" viewBox="0 0 56 58" xmlns="http://www.w3.org/2000/svg"><title>flurries-sun</title><path d="M52.494 26.496h-4c-1.104 0-2-.895-2-2 0-1.104.896-2 2-2h4c1.104 0 1.999.896 1.999 2 0 1.106-.895 2-1.999 2zm-7.857-13.312c-.781.781-2.047.781-2.828 0-.781-.781-.781-2.047 0-2.828l2.828-2.828c.781-.781 2.047-.781 2.828 0 .781.781.781 2.047 0 2.828l-2.828 2.828zm-2.948 15.607c1.749 2.084 2.805 4.77 2.805 7.704 0 5.223-3.342 9.652-7.998 11.303v-4.381c2.389-1.385 3.999-3.963 3.999-6.922 0-4.417-3.581-7.999-7.999-7.999-1.6 0-3.083.48-4.334 1.291-1.231-5.316-5.973-9.291-11.664-9.291-6.627 0-11.998 5.373-11.998 12 0 3.549 1.55 6.729 3.999 8.924v4.916c-4.776-2.768-7.999-7.922-7.999-13.84 0-8.836 7.162-15.999 15.998-15.999 1.572 0 3.09.232 4.523.655 2.195-2.828 5.618-4.654 9.475-4.654 6.627 0 11.999 5.371 11.999 11.998 0 1.516-.293 2.959-.806 4.295zm-11.193-12.293c-2.212 0-4.215.898-5.662 2.351 2.34 1.435 4.285 3.453 5.629 5.853.664-.113 1.337-.205 2.033-.205 2.125 0 4.118.559 5.85 1.527.096-.494.15-1.004.15-1.527 0-4.418-3.582-7.999-8-7.999zm0-7.999c-1.104 0-2-.895-2-2v-3.999c0-1.104.896-2 2-2s2 .896 2 2v3.999c0 1.105-.895 2-2 2zm-14.141 4.685l-2.828-2.828c-.78-.781-.78-2.047 0-2.828.781-.781 2.048-.781 2.828 0l2.828 2.828c.781.781.781 2.047 0 2.828-.78.781-2.046.781-2.828 0zm-1.857 27.311c1.104 0 2 .896 2 2 0 1.105-.896 2-2 2s-2-.895-2-2c0-1.104.896-2 2-2zm0 8c1.104 0 2 .895 2 2 0 1.104-.896 1.998-2 1.998s-2-.895-2-1.998c0-1.106.896-2 2-2zm8-4c1.104 0 1.999.895 1.999 2 0 1.104-.896 2-1.999 2-1.105 0-2-.896-2-2 0-1.106.895-2 2-2zm0 7.998c1.104 0 1.999.896 1.999 2 0 1.105-.896 2-1.999 2-1.105 0-2-.895-2-2 0-1.104.895-2 2-2zm7.998-11.998c1.104 0 2 .896 2 2 0 1.105-.896 2-2 2s-2-.895-2-2c0-1.104.897-2 2-2zm0 8c1.104 0 2 .895 2 2 0 1.104-.896 1.998-2 1.998s-2-.895-2-1.998c0-1.106.897-2 2-2z" fill="none" stroke="#000"/></svg>