<svg width="54" height="64" viewBox="0 0 54 64" xmlns="http://www.w3.org/2000/svg"><title>hail-sun</title><path d="M51.994 26.497h-4c-1.104 0-1.999-.895-1.999-2 0-1.104.896-2 1.999-2h4c1.104 0 2 .896 2 2 0 1.105-.895 2-2 2zm-7.857-13.312c-.78.781-2.047.781-2.828 0-.78-.781-.78-2.047 0-2.828l2.828-2.828c.781-.781 2.048-.781 2.828 0 .781.781.781 2.047 0 2.828l-2.828 2.828zm-2.948 15.607c1.75 2.084 2.806 4.77 2.806 7.703 0 5.223-3.342 9.652-7.999 11.303v-4.381c2.389-1.385 4-3.963 4-6.922 0-4.416-3.582-7.998-8-7.998-1.6 0-3.082.48-4.333 1.291-1.231-5.316-5.974-9.291-11.665-9.291-6.626 0-11.998 5.373-11.998 12 0 1.404.252 2.748.697 3.998.68 1.91 1.822 3.6 3.303 4.926v4.916c-3.66-2.121-6.393-5.648-7.477-9.842-.332-1.279-.523-2.615-.523-3.998 0-8.835 7.163-15.999 15.998-15.999 1.573 0 3.09.232 4.524.655 2.195-2.828 5.618-4.654 9.475-4.654 6.626 0 11.999 5.371 11.999 11.998 0 1.515-.293 2.959-.807 4.295zm-11.192-12.294c-2.212 0-4.215.898-5.663 2.351 2.341 1.435 4.286 3.452 5.629 5.853.664-.113 1.338-.205 2.033-.205 2.126 0 4.119.559 5.85 1.527.097-.494.15-1.004.15-1.527 0-4.418-3.582-7.999-7.999-7.999zm0-7.999c-1.104 0-2-.895-2-2v-3.999c0-1.104.896-2 2-2s1.999.896 1.999 2v3.999c0 1.105-.895 2-1.999 2zm-14.141 4.686l-2.828-2.828c-.78-.781-.78-2.047 0-2.828.781-.781 2.048-.781 2.828 0l2.828 2.828c.781.781.781 2.047 0 2.828-.78.781-2.046.781-2.828 0zm-12.856 42.308c1.105 0 2 .896 2 2 0 1.105-.895 2-2 2-1.104 0-2-.895-2-2 0-1.104.896-2 2-2zm9.999-16.998c0-1.104-.104-2 1-2s1 .896 1 2v23.998h-2c0-2.209-1.79-4-3.999-4v-2c1.543 0 2.936.6 3.999 1.557v-19.555zm8.999 13.998c-1.104 0-1-.895-1-1.998v-8c0-1.104-.104-2 1-2s1 .896 1 2v8c0 1.103.104 1.998-1 1.998zm0 4c1.104 0 2 .896 2 2s-.896 2-2 2-2-.896-2-2 .895-2 2-2zm7.999-19.998c1.104 0 1 .896 1 2v18.016c1.823-2.434 4.723-4.018 7.999-4.018v2c-4.418 0-7.999 3.582-7.999 8h-2c0-.273.02-.539.04-.807-.053-.334-.04-.744-.04-1.193v-21.998c0-1.104-.104-2 1-2zm14.998 14c1.104 0 1.999.895 1.999 1.998 0 1.105-.895 2-1.999 2s-2-.895-2-2c0-1.104.896-1.998 2-1.998z" fill="none" stroke="#000"/></svg>