<svg width="56" height="48" viewBox="0 0 56 48" xmlns="http://www.w3.org/2000/svg"><title>haze-sun</title><path d="M52.494 26.497h-4c-1.104 0-2-.896-2-2s.896-2 2-2h4c1.104 0 2 .896 2 2 0 1.103-.896 2-2 2zm-7.857-13.313c-.781.781-2.047.781-2.828 0-.781-.781-.781-2.047 0-2.828l2.828-2.828c.781-.781 2.047-.781 2.828 0 .781.781.781 2.047 0 2.828l-2.828 2.828zm-2.322 13.313h-40.641c.281-.693.613-1.359.984-2h27.672l.133.205c.664-.114 1.337-.205 2.033-.205 2.125 0 4.119.559 5.85 1.527.096-.494.15-1.006.15-1.527 0-4.418-3.582-7.999-8-7.999-2.025 0-3.869.759-5.277 1.999h-16.459c2.294-1.271 4.93-1.999 7.738-1.999 1.572 0 3.09.232 4.523.655 2.195-2.828 5.618-4.654 9.475-4.654 6.627 0 11.999 5.371 11.999 11.998 0 .683-.067 1.349-.18 2zm-11.819-17.998c-1.104 0-1.999-.896-1.999-2v-3.999c0-1.104.896-2 1.999-2 1.105 0 2 .896 2 2v3.999c0 1.104-.895 2-2 2zm-14.141 4.685l-2.827-2.828c-.781-.781-.781-2.047 0-2.828.78-.781 2.047-.781 2.827 0l2.828 2.828c.781.781.781 2.047 0 2.828-.78.781-2.046.781-2.828 0zm-10.414 7.313h21.081c.696.611 1.337 1.278 1.918 2h-24.919c.58-.723 1.225-1.388 1.92-2zm38.381 13.998h-43.683c-.082-.656-.139-1.32-.139-2h43.303c.228.644.404 1.312.519 2zm-38.381 10h35.48c-.68.758-1.447 1.434-2.299 1.998h-30.362c-1.016-.561-1.955-1.239-2.819-1.998zm-3.283-4h41.139c-.246.699-.555 1.367-.92 2h-38.856c-.504-.629-.957-1.299-1.363-2zm-2.019-10c.085-.682.218-1.346.387-1.998h40.764l-.1.295c.445.529.845 1.102 1.194 1.703h-42.245zm.386 6h43.47c0 .684-.071 1.348-.181 2h-42.64c-.262-.647-.473-1.317-.649-2z" fill="none" stroke="#000"/></svg>