<svg width="45" height="37" viewBox="0 0 45 37" xmlns="http://www.w3.org/2000/svg"><title>haze-moon</title><path d="M39.211 16.998c.746-.927 1.303-2.013 1.576-3.211-4.854-.904-8.676-4.726-9.579-9.58-2.559.585-4.626 2.404-5.594 4.791h-17.354c2.293-1.271 4.93-1.999 7.738-1.999 2.002 0 3.914.376 5.68 1.048 1.635-4.683 6.078-8.047 11.318-8.047.755 0 1.491.078 2.207.211-.131.576-.207 1.173-.207 1.789 0 4.418 3.581 7.998 7.998 7.998.616 0 1.213-.076 1.789-.207.133.717.211 1.452.211 2.207 0 1.789-.405 3.478-1.109 5h-4.674zm4.783 9.998c0 .684-.07 1.348-.18 2h-42.64c-.262-.646-.473-1.315-.649-2h43.469zm-.697 4c-.247.699-.555 1.367-.92 2h-38.857c-.505-.629-.956-1.299-1.362-2h41.139zm-2.375 4c-.68.758-1.447 1.434-2.299 1.999h-30.363c-1.016-.562-1.955-1.239-2.818-1.999h35.48zm-40.783-10c-.082-.656-.139-1.32-.139-1.999h43.284c.229.646.417 1.31.534 1.999h-43.679zm41.676-4.883c.196.281.354.588.527.884h-42.203c.085-.682.218-1.347.386-1.999h42.19c-.281.386-.576.764-.9 1.115zm-3.221-3.115h-37.42c.281-.693.613-1.359.984-2h27.675l.13.205c.664-.114 1.337-.205 2.033-.205 2.443 0 4.703.745 6.598 2zm-33.153-6h21.111c.689.607 1.314 1.283 1.891 2h-24.923c.581-.723 1.226-1.388 1.921-2z" fill="none" stroke="#000"/></svg>