<svg width="56" height="60" viewBox="0 0 56 60" xmlns="http://www.w3.org/2000/svg"><title>rain-sun</title><path d="M52.492 25.996h-3.999c-1.104 0-2-.895-2-2 0-1.104.896-1.999 2-1.999h3.999c1.104 0 2 .895 2 1.999 0 1.105-.895 2-2 2zm-7.856-13.312c-.781.781-2.048.781-2.828 0-.781-.78-.781-2.047 0-2.827l2.828-2.828c.78-.781 2.047-.781 2.828 0 .78.78.78 2.047 0 2.828l-2.828 2.827zm-2.947 15.607c1.749 2.086 2.805 4.77 2.805 7.705 0 5.221-3.342 9.652-7.999 11.301v-4.381c2.389-1.385 4-3.961 4-6.92 0-4.418-3.582-8-7.999-8-1.601 0-3.084.482-4.334 1.291-1.231-5.316-5.973-9.29-11.664-9.29-6.627 0-11.999 5.372-11.999 11.999 0 3.549 1.551 6.729 4 8.926v4.914c-4.777-2.768-7.999-7.922-7.999-13.84 0-8.836 7.162-15.998 15.998-15.998 1.572 0 3.089.232 4.523.654 2.195-2.827 5.617-4.654 9.475-4.654 6.627 0 11.998 5.372 11.998 11.998-.001 1.515-.293 2.961-.805 4.295zm-11.194-12.293c-2.213 0-4.215.898-5.663 2.35 2.341 1.436 4.286 3.452 5.63 5.853.664-.113 1.336-.205 2.033-.205 2.125 0 4.118.559 5.85 1.527.096-.494.149-1.004.149-1.527 0-4.417-3.581-7.998-7.999-7.998zm0-8c-1.104 0-2-.895-2-1.999v-3.999c0-1.105.896-2 2-2s2 .895 2 2v3.999c0 1.105-.895 1.999-2 1.999zm-14.14 4.686l-2.828-2.827c-.78-.781-.78-2.048 0-2.828.781-.781 2.047-.781 2.828 0l2.828 2.828c.781.78.781 2.047 0 2.827-.781.781-2.047.781-2.828 0zm-1.858 23.312c1.104 0 2 .895 2 2v3.998c0 1.105-.896 2-2 2s-2-.895-2-2v-3.998c0-1.106.896-2 2-2zm0 11.998c1.104 0 2 .895 2 2v3.998c0 1.105-.896 2-2 2s-2-.895-2-2v-3.998c0-1.106.896-2 2-2zm7.999-8c1.104 0 2 .896 2 2v4c0 1.104-.896 2-2 2s-2-.896-2-2v-4c0-1.104.896-2 2-2zm0 12c1.104 0 2 .895 2 1.998v4c0 1.105-.896 2-2 2s-2-.895-2-2v-4c0-1.104.896-1.998 2-1.998zm7.999-15.998c1.104 0 2 .895 2 2v3.998c0 1.105-.896 2-2 2s-2-.895-2-2v-3.998c0-1.106.896-2 2-2zm0 11.998c1.104 0 2 .895 2 2v3.998c0 1.105-.896 2-2 2s-2-.895-2-2v-3.998c0-1.106.896-2 2-2z" fill="none" stroke="#000"/></svg>