<svg width="45" height="50" viewBox="0 0 45 50" xmlns="http://www.w3.org/2000/svg"><title>showers-moon</title><path d="M41.815 20.116c1.369 1.949 2.179 4.318 2.179 6.882 0 5.227-3.349 9.66-8.013 11.305-.027-1.336-.434-2.66-1.223-3.807 3.055-1.127 5.236-4.055 5.236-7.498 0-4.417-3.581-8-7.999-8-1.601 0-3.083.482-4.334 1.291-1.231-5.316-5.973-9.29-11.664-9.29-6.627 0-11.999 5.372-11.999 11.999 0 1.404.254 2.746.698 4h.015c.975 2.74 2.895 5.031 5.394 6.445l-.057.057c-.981.98-1.596 2.184-1.872 3.445-3.751-2.107-6.551-5.686-7.652-9.947-.33-1.281-.524-2.617-.524-4 0-8.835 7.162-15.998 15.998-15.998 2.002 0 3.914.375 5.679 1.047 1.636-4.682 6.079-8.047 11.319-8.047.755 0 1.491.078 2.207.212-.132.575-.208 1.173-.208 1.788 0 4.418 3.582 7.999 8 7.999.615 0 1.212-.076 1.787-.208.134.717.212 1.453.212 2.208-.001 3.135-1.212 5.981-3.179 8.117zm-10.608-15.907c-2.9.664-5.175 2.91-5.924 5.775 1.917 1.372 3.521 3.152 4.679 5.221.664-.113 1.337-.205 2.033-.205 2.618 0 5.032.849 7.005 2.271.858-.979 1.485-2.168 1.786-3.482-4.854-.905-8.675-4.725-9.579-9.58zm-16.21 29.999l2.121 2.121c1.172 1.172 1.172 3.07 0 4.242-1.171 1.172-3.07 1.172-4.242 0-1.171-1.172-1.171-3.07 0-4.242l2.121-2.121zm6.999 7.998l2.121 2.121c1.172 1.172 1.172 3.072 0 4.242-1.171 1.172-3.07 1.172-4.242 0-1.171-1.17-1.171-3.07 0-4.242l2.121-2.121zm6.999-7.998l2.121 2.121c1.172 1.172 1.172 3.07 0 4.242-1.171 1.172-3.07 1.172-4.242 0-1.171-1.172-1.171-3.07 0-4.242l2.121-2.121z" fill="none" stroke="#000"/></svg>