<svg width="56" height="59" viewBox="0 0 56 59" xmlns="http://www.w3.org/2000/svg"><title>showers-sun</title><path d="M52.493 25.995h-4c-1.104 0-2-.895-2-2 0-1.104.896-1.998 2-1.998h4c1.104 0 1.999.895 1.999 1.998 0 1.106-.894 2-1.999 2zm-7.857-13.312c-.781.781-2.047.781-2.828 0-.781-.78-.781-2.047 0-2.827l2.828-2.828c.781-.781 2.047-.781 2.828 0 .781.78.781 2.047 0 2.828l-2.828 2.827zm-2.947 15.607c1.749 2.086 2.806 4.77 2.806 7.706 0 5.227-3.349 9.66-8.014 11.305-.027-1.336-.434-2.66-1.222-3.807 3.054-1.127 5.235-4.055 5.235-7.498 0-4.418-3.581-8-7.999-8-1.601 0-3.083.482-4.333 1.291-1.232-5.316-5.974-9.29-11.665-9.29-6.626 0-11.998 5.372-11.998 11.999 0 1.404.254 2.746.697 4h.015c.975 2.74 2.895 5.031 5.395 6.445l-.058.057c-.98.98-1.596 2.184-1.872 3.445-3.751-2.107-6.551-5.686-7.652-9.947-.33-1.281-.524-2.617-.524-4 0-8.836 7.163-15.998 15.998-15.998 1.572 0 3.089.232 4.523.654 2.195-2.827 5.618-4.654 9.475-4.654 6.627 0 11.999 5.372 11.999 11.998-.001 1.515-.294 2.96-.806 4.294zm-11.194-12.292c-2.212 0-4.214.898-5.662 2.35 2.34 1.436 4.286 3.453 5.629 5.853.664-.113 1.337-.205 2.033-.205 2.126 0 4.118.559 5.85 1.527.096-.494.149-1.004.149-1.527 0-4.417-3.581-7.998-7.999-7.998zm0-8c-1.104 0-1.999-.895-1.999-1.999v-3.999c0-1.105.895-2 1.999-2s2 .895 2 2v3.999c0 1.104-.895 1.999-2 1.999zm-14.139 4.685l-2.828-2.827c-.781-.781-.781-2.048 0-2.828.78-.781 2.047-.781 2.828 0l2.828 2.828c.78.78.78 2.047 0 2.827-.781.781-2.048.781-2.828 0zm-.859 30.522l2.121 2.121c1.172 1.172 1.172 3.07 0 4.242-1.171 1.172-3.07 1.172-4.242 0-1.171-1.172-1.171-3.07 0-4.242l2.121-2.121zm6.999 7.998l2.121 2.121c1.172 1.172 1.172 3.072 0 4.242-1.171 1.172-3.07 1.172-4.242 0-1.171-1.17-1.171-3.07 0-4.242l2.121-2.121zm6.999-7.998l2.121 2.121c1.172 1.172 1.172 3.07 0 4.242-1.171 1.172-3.07 1.172-4.241 0-1.172-1.172-1.172-3.07 0-4.242l2.12-2.121z" fill="none" stroke="#000"/></svg>