<svg width="45" height="51" viewBox="0 0 45 51" xmlns="http://www.w3.org/2000/svg"><title>sleet-moon</title><path d="M41.815 20.115c1.369 1.949 2.18 4.32 2.18 6.882 0 5.223-3.343 9.652-8 11.301v-4.381c2.389-1.383 4-3.961 4-6.92 0-4.417-3.581-7.999-7.999-7.999-1.601 0-3.083.48-4.333 1.291-1.232-5.317-5.974-9.29-11.665-9.29-6.626 0-11.998 5.372-11.998 11.998 0 3.55 1.55 6.728 3.999 8.925v4.916c-4.777-2.768-7.999-7.922-7.999-13.841 0-8.835 7.163-15.997 15.998-15.997 2.002 0 3.914.375 5.68 1.047 1.635-4.682 6.078-8.047 11.318-8.047.755 0 1.491.078 2.208.212-.132.575-.208 1.173-.208 1.788 0 4.418 3.581 7.999 7.999 7.999.615 0 1.212-.076 1.788-.208.133.717.211 1.453.211 2.207 0 3.136-1.211 5.98-3.179 8.117zm-10.607-15.907c-2.9.664-5.174 2.91-5.924 5.775 1.917 1.372 3.521 3.152 4.679 5.221.664-.113 1.337-.205 2.033-.205 2.618 0 5.032.848 7.005 2.271.858-.98 1.485-2.168 1.786-3.482-4.854-.904-8.675-4.724-9.579-9.58zm-17.21 34.788c-1.104 0-.999-.895-.999-1.998v-8c0-1.104-.105-2 .999-2s1 .896 1 2v8c0 1.103.104 1.998-1 1.998zm0 4c1.104 0 2 .896 2 2 0 1.105-.896 2-2 2s-1.999-.895-1.999-2c0-1.104.894-2 1.999-2zm7.999 0c-1.104 0-1-.895-1-2v-7.998c0-1.105-.104-2 1-2s1 .895 1 2v7.998c0 1.105.104 2-1 2zm0 4c1.104 0 2 .895 2 2 0 1.104-.896 2-2 2s-1.999-.896-1.999-2c0-1.106.895-2 1.999-2zm7.999-8c-1.104 0-1-.895-1-1.998v-8c0-1.104-.104-2 1-2s1 .896 1 2v8c0 1.103.105 1.998-1 1.998zm0 4c1.104 0 2 .896 2 2 0 1.105-.896 2-2 2s-1.999-.895-1.999-2c0-1.104.895-2 1.999-2z" fill="none" stroke="#000"/></svg>