<svg width="56" height="60" viewBox="0 0 56 60" xmlns="http://www.w3.org/2000/svg"><title>sleet-sun</title><path d="M52.494 25.996h-4c-1.104 0-2-.895-2-2 0-1.104.896-2 2-2h4c1.104 0 1.999.896 1.999 2 0 1.106-.894 2-1.999 2zm-7.857-13.312c-.78.781-2.047.781-2.828 0-.78-.78-.78-2.047 0-2.828l2.828-2.828c.781-.78 2.048-.78 2.828 0 .781.781.781 2.048 0 2.828l-2.828 2.828zm-2.948 15.607c1.749 2.084 2.806 4.77 2.806 7.704 0 5.223-3.342 9.652-7.999 11.301v-4.381c2.389-1.383 3.999-3.961 3.999-6.92 0-4.417-3.581-7.999-7.999-7.999-1.6 0-3.083.48-4.333 1.291-1.232-5.317-5.974-9.29-11.665-9.29-6.626 0-11.998 5.372-11.998 11.998 0 3.55 1.55 6.728 3.999 8.925v4.916c-4.776-2.768-7.999-7.922-7.999-13.841 0-8.835 7.163-15.997 15.998-15.997 1.572 0 3.089.231 4.524.654 2.194-2.827 5.617-4.654 9.475-4.654 6.626 0 11.998 5.371 11.998 11.998 0 1.516-.293 2.96-.806 4.295zm-11.192-12.293c-2.213 0-4.215.898-5.663 2.35 2.341 1.435 4.286 3.452 5.629 5.854.664-.113 1.337-.205 2.033-.205 2.126 0 4.118.559 5.85 1.527.096-.494.149-1.004.149-1.527 0-4.419-3.581-7.999-7.998-7.999zm0-8c-1.104 0-2-.895-2-2v-3.999c0-1.104.896-1.999 2-1.999s1.999.895 1.999 1.999v3.999c0 1.106-.895 2-1.999 2zm-14.141 4.686l-2.828-2.828c-.781-.78-.781-2.047 0-2.828.781-.78 2.047-.78 2.828 0l2.828 2.828c.78.781.78 2.048 0 2.828-.781.781-2.046.781-2.828 0zm-1.857 35.309c-1.104 0-1-.895-1-1.998v-8c0-1.104-.104-2 1-2s.999.896.999 2v8c0 1.103.104 1.998-.999 1.998zm0 4c1.104 0 1.999.896 1.999 2 0 1.105-.896 2-1.999 2-1.104 0-2-.895-2-2 0-1.104.895-2 2-2zm7.999 0c-1.104 0-1-.895-1-2v-7.998c0-1.105-.104-2 1-2s.999.895.999 2v7.998c0 1.105.104 2-.999 2zm0 4c1.104 0 1.999.895 1.999 2 0 1.104-.896 2-1.999 2-1.104 0-2-.896-2-2 0-1.106.895-2 2-2zm7.999-8c-1.104 0-1-.895-1-1.998v-8c0-1.104-.104-2 1-2s.999.896.999 2v8c0 1.103.105 1.998-.999 1.998zm0 4c1.104 0 1.999.896 1.999 2 0 1.105-.896 2-1.999 2-1.104 0-2-.895-2-2 0-1.104.896-2 2-2z" fill="none" stroke="#000"/></svg>