<svg width="54" height="56" viewBox="0 0 54 56" xmlns="http://www.w3.org/2000/svg"><title>snow-sun</title><path d="M51.993 26.496h-4c-1.104 0-1.999-.895-1.999-2 0-1.104.895-2 1.999-2h4c1.104 0 2 .896 2 2 0 1.106-.895 2-2 2zm-7.856-13.312c-.781.781-2.048.781-2.828 0-.781-.781-.781-2.047 0-2.828l2.828-2.828c.78-.781 2.047-.781 2.827 0 .781.781.781 2.047 0 2.828l-2.827 2.828zm-2.949 15.607c1.749 2.084 2.806 4.77 2.806 7.704 0 5.945-4.326 10.865-9.999 11.82v-4.082c3.448-.891 5.999-4.012 5.999-7.738 0-4.417-3.581-7.999-7.998-7.999-1.601 0-3.084.48-4.334 1.291-1.231-5.316-5.974-9.291-11.665-9.291-6.626 0-11.998 5.373-11.998 12 0 4.438 2.416 8.305 5.999 10.379v4.445c-5.86-2.375-9.998-8.113-9.998-14.825 0-8.836 7.162-15.999 15.997-15.999 1.573 0 3.09.232 4.524.655 2.195-2.828 5.617-4.654 9.475-4.654 6.626 0 11.998 5.371 11.998 11.998 0 1.517-.293 2.96-.806 4.296zm-11.192-12.293c-2.213 0-4.215.898-5.663 2.351 2.341 1.435 4.286 3.453 5.63 5.853.663-.113 1.336-.205 2.033-.205 2.125 0 4.118.559 5.85 1.527.096-.494.149-1.004.149-1.527 0-4.419-3.582-7.999-7.999-7.999zm0-7.999c-1.104 0-2-.895-2-2v-3.999c0-1.104.896-2 2-2s2 .896 2 2v3.999c0 1.105-.896 2-2 2zm-14.141 4.685l-2.828-2.828c-.781-.781-.781-2.047 0-2.828.781-.781 2.047-.781 2.828 0l2.828 2.828c.781.781.781 2.047 0 2.828-.781.781-2.046.781-2.828 0zm-.786 29.311c.553-.957 1.775-1.283 2.731-.732l2.196 1.268v-2.535c0-1.104.896-2 2-2s1.999.896 1.999 2v2.535l2.196-1.268c.956-.551 2.18-.225 2.731.732.553.957.225 2.18-.731 2.732l-2.195 1.268 2.196 1.268c.956.553 1.284 1.775.731 2.732-.552.955-1.775 1.283-2.731.73l-2.196-1.267v2.535c0 1.105-.895 2-1.999 2s-2-.895-2-2v-2.535l-2.196 1.268c-.956.553-2.179.225-2.731-.73-.552-.957-.225-2.18.732-2.732l2.195-1.268-2.195-1.268c-.957-.554-1.285-1.776-.733-2.733zm6.928 6c1.104 0 1.999-.896 1.999-2 0-1.105-.895-2-1.999-2s-2 .895-2 2c0 1.103.895 2 2 2z" fill="none" stroke="#000"/></svg>