<svg width="16" height="36" viewBox="0 0 16 36" xmlns="http://www.w3.org/2000/svg"><title>thermometer-low</title><path d="M7.999 35.995c-4.417 0-7.999-3.581-7.999-7.999 0-2.025.759-3.869 2-5.278v-16.719c0-3.313 2.687-5.999 5.999-5.999 3.313 0 6 2.686 6 5.999v16.719c1.24 1.409 1.999 3.253 1.999 5.278 0 4.418-3.581 7.999-7.999 7.999zm2-11.444v-18.552c0-1.104-.896-2-2-2s-1.999.896-1.999 2v18.552c-1.19.693-2 1.969-2 3.445 0 2.209 1.791 3.999 3.999 3.999 2.209 0 4-1.79 4-3.999 0-1.477-.81-2.752-2-3.445zm-2 6.445c-1.656 0-2.999-1.344-2.999-3s1.343-3 2.999-3c1.657 0 3 1.344 3 3s-1.343 3-3 3z" fill="none" stroke="#000"/></svg>