<svg width="18" height="38" viewBox="0 0 18 38" xmlns="http://www.w3.org/2000/svg"><title>thermometer-full</title><path d="M8.5 36.496c-4.418 0-8-3.582-8-8 0-2.025.76-3.869 2-5.279v-16.717c0-3.313 2.686-6 6-6 3.312 0 6 2.687 6 6v16.717c1.24 1.41 1.998 3.254 1.998 5.279 0 4.418-3.58 8-7.998 8zm2-11.445v-18.551c0-1.104-.896-2-2-2-1.105 0-2 .896-2 2v18.551c-1.189.693-2 1.969-2 3.445 0 2.209 1.791 4 4 4s4-1.791 4-4c0-1.476-.811-2.752-2-3.445zm-2 6.445c-1.656 0-3-1.344-3-3 0-1.305.838-2.402 2-2.816v-19.181c0-.553.447-1 1-1 .553 0 1 .447 1 1v19.181c1.162.414 2 1.512 2 2.816 0 1.656-1.344 3-3 3z" fill="none" stroke="#000"/></svg>