<svg width="44" height="38" viewBox="0 0 44 38" xmlns="http://www.w3.org/2000/svg"><title>tornado</title><path d="M40.495 4.499h-37.995c-1.104 0-2-.896-2-1.999 0-1.104.896-2 2-2h37.995c1.104 0 2 .896 2 2 0 1.103-.895 1.999-2 1.999zm-35.995 4h29.996c1.104 0 2 .896 2 2s-.896 1.999-2 1.999h-29.996c-1.104 0-2-.896-2-1.999 0-1.105.896-2 2-2zm11.998 7.999h21.998c1.104 0 1.999.896 1.999 1.999 0 1.104-.895 2-1.999 2h-21.998c-1.104 0-1.999-.896-1.999-2 0-1.103.895-1.999 1.999-1.999zm2 15.998h5.999c1.104 0 2 .896 2 1.999 0 1.104-.896 2-2 2h-5.999c-1.104 0-2-.896-2-2 0-1.103.896-1.999 2-1.999zm1-6c0-1.104.896-1.999 2-1.999h13.998c1.104 0 2 .896 2 1.999 0 1.104-.896 2-2 2h-13.998c-1.104 0-2-.895-2-2z" fill="none" stroke="#000"/></svg>