<svg width="412" height="412" viewBox="0 0 412 412" xmlns="http://www.w3.org/2000/svg" xmlns:sketch="http://www.bohemiancoding.com/sketch/ns"><title>DEMO</title><desc>Created with Sketch.</desc><defs><filter x="-50%" y="-50%" width="200%" height="200%" filterUnits="objectBoundingBox" id="a"><feOffset dx="1" dy="2" in="SourceAlpha" result="shadowOffsetOuter1"/><feGaussianBlur stdDeviation="3.5" in="shadowOffsetOuter1" result="shadowBlurOuter1"/><feColorMatrix values="0 0 0 0 0 0 0 0 0 0 0 0 0 0 0 0 0 0 0.35 0" in="shadowBlurOuter1" result="shadowMatrixOuter1"/><feMerge><feMergeNode in="shadowMatrixOuter1"/><feMergeNode in="SourceGraphic"/></feMerge></filter></defs><g sketch:type="MSLayerGroup" transform="rotate(-30 205.5 205) translate(5 5)" fill="none"><ellipse stroke="#CECECF" stroke-width="5" sketch:type="MSShapeGroup" cx="200.35" cy="200.439" rx="185.755" ry="185.755"/><circle stroke="#CECECF" stroke-width="10" sketch:type="MSShapeGroup" cx="200.5" cy="200.439" r="200"/><path d="M64.3 180.389c0-5-1.7-7.5-5.1-7.5-.6 0-1.3.067-2.1.2-1.2.2-2.1.3-2.7.3-2.067 0-3.1-1.067-3.1-3.2 0-2.333 1.5-3.5 4.5-3.5.333 0 .767.033 1.3.1l5.3.7c2 .267 4.133.4 6.4.4 1.867 0 3.733-.1 5.6-.3l6.5-.7c1.267-.133 2.933-.2 5-.2 6.067 0 11.133.867 15.2 2.6 5.333 2.267 9.55 6.2 12.65 11.8 3.1 5.6 4.65 12.1 4.65 19.5 0 6.533-1.233 12.417-3.7 17.65-2.467 5.233-5.833 9.083-10.1 11.55-5.133 3-11.333 4.5-18.6 4.5-1.467 0-2.967-.067-4.5-.2l-6.9-.6c-2.333-.2-4.767-.3-7.3-.3-2.2 0-4 .1-5.4.3l-4.8.7c-.133 0-.367.033-.7.1h-.8c-2.867 0-4.3-1.167-4.3-3.5 0-.933.3-1.717.9-2.35.6-.633 1.333-.95 2.2-.95.733 0 1.633.1 2.7.3.467.133 1.167.2 2.1.2 3.4 0 5.1-2.5 5.1-7.5v-40.1zm8.4-1v42.3c0 3.067 1.5 4.933 4.5 5.6 1 .267 3.8.4 8.4.4 8 0 13.8-2.167 17.4-6.5 4.333-5.2 6.5-12.067 6.5-20.6 0-6.667-1.317-12.317-3.95-16.95-2.633-4.633-6.25-7.617-10.85-8.95-2.933-.867-6.467-1.3-10.6-1.3-5.267 0-8.483.3-9.65.9-1.167.6-1.75 2.3-1.75 5.1zm64.4 1c0-4.933-1.7-7.4-5.1-7.4-.933 0-1.633.067-2.1.2-1.067.2-1.967.3-2.7.3-.867 0-1.6-.317-2.2-.95-.6-.633-.9-1.417-.9-2.35 0-2.333 1.4-3.5 4.2-3.5.067 0 .567.033 1.5.1 10 .667 14.667 1 14 1h1l24.1-.7c.467 0 2.2-.1 5.2-.3 1.067-.067 2.033-.1 2.9-.1 3.467 0 5.2 1.533 5.2 4.6 0 .533-.133 2.233-.4 5.1-.2 2.133-.3 4.1-.3 5.9 0 2.333.067 3.967.2 4.9.267 1.933.4 3.367.4 4.3 0 2.533-1.2 3.8-3.6 3.8-2.4 0-3.6-1.767-3.6-5.3v-5.2c0-5.6-1.167-8.9-3.5-9.9-1.733-.733-6.2-1.1-13.4-1.1-4.733 0-7.533.1-8.4.3-2.867.733-4.3 2.733-4.3 6v6.7c-.067.933-.1 1.6-.1 2v1.3c0 2.667.6 4.2 1.8 4.6.467.133 1.267.2 2.4.2h4.1c4.2 0 6.3-1.433 6.3-4.3 0-.8-.1-1.833-.3-3.1-.2-1.267-.3-2.4-.3-3.4 0-2.667 1.2-4 3.6-4 2.4 0 3.6 1.433 3.6 4.3 0 .533-.233 2.6-.7 6.2-.4 3.067-.6 5.767-.6 8.1 0 1.333.133 3.7.4 7.1.067.533.233 1.7.5 3.5.2 1.467.3 2.633.3 3.5 0 2.4-1.2 3.6-3.6 3.6-2.333 0-3.5-1.4-3.5-4.2 0-.733.083-1.8.25-3.2.167-1.4.25-2.467.25-3.2 0-2.867-1.9-4.3-5.7-4.3h-4.5c-1.933 0-3.117.333-3.55 1-.433.667-.65 2.1-.65 4.3v6.2c0 1.067.033 2.5.1 4.3.067 2.2.1 3.667.1 4.4.067 2.667.6 4.333 1.6 5 .733.467 2.467.7 5.2.7h13.6c3.933 0 6.633-.583 8.1-1.75 1.467-1.167 2.2-3.35 2.2-6.55 0-1-.05-2.483-.15-4.45-.1-1.967-.15-3.45-.15-4.45 0-3 1.2-4.5 3.6-4.5 2.533 0 3.8 1.533 3.8 4.6 0 1.2-.067 3.033-.2 5.5s-.2 4.3-.2 5.5c0 .933.05 2.317.15 4.15.1 1.833.15 3.217.15 4.15 0 3.133-1.533 4.7-4.6 4.7-.733 0-1.9-.067-3.5-.2-.8-.067-2.267-.1-4.4-.1.467 0-2.133-.067-7.8-.2s-10.567-.2-14.7-.2c-6.267 0-12.4.2-18.4.6-.267 0-.567.033-.9.1h-.6c-2.8 0-4.2-1.2-4.2-3.6 0-2.133 1.033-3.2 3.1-3.2.333 0 1.233.067 2.7.2.733.2 1.433.3 2.1.3 3.4 0 5.1-2.5 5.1-7.5v-40.1zm84.3-6.2l15.4 50.6 16.9-53.9c.867-2.8 2.367-4.2 4.5-4.2h.5c.667 0 1.533.1 2.6.3 1.333.333 2.2.5 2.6.5 1.067.133 2.533.2 4.4.2 2 0 3.567-.1 4.7-.3l3.5-.6c.2-.067.6-.1 1.2-.1 3.067 0 4.6 1.167 4.6 3.5 0 2.133-1.067 3.2-3.2 3.2-.533 0-1.317-.083-2.35-.25-1.033-.167-1.817-.25-2.35-.25-3.4 0-5.1 2.5-5.1 7.5v7l-.1 8.8v8.5l.1 15.8c0 5 1.667 7.5 5 7.5.667 0 1.4-.1 2.2-.3 1.467-.133 2.333-.2 2.6-.2 2.133 0 3.2 1.067 3.2 3.2 0 2.4-1.433 3.6-4.3 3.6.133 0-.367-.067-1.5-.2-4.6-.533-8.5-.8-11.7-.8-3.133 0-6.133.233-9 .7-1.2.2-2.267.3-3.2.3-2.6 0-3.9-1.1-3.9-3.3 0-2.267 1.333-3.4 4-3.4.667 0 1.167.033 1.5.1 1.467.133 2.333.2 2.6.2 2.4 0 3.9-2.5 4.5-7.5.133-1.067.2-4.467.2-10.2 0-2.2.033-5.4.1-9.6l.2-9v-17.7c0-.4-.167-.6-.5-.6-.2 0-.4.2-.6.6l-18.4 57.1c-.8 2.533-2.667 3.8-5.6 3.8-1.733 0-3.017-.25-3.85-.75-.833-.5-1.483-1.517-1.95-3.05l-18.1-57.1c-.2-.4-.433-.6-.7-.6-.267 0-.4.2-.4.6l.6 46.5c.067 4.867 1.4 7.3 4 7.3.733 0 1.733-.133 3-.4h1.2c2.6 0 3.9 1.167 3.9 3.5s-1.333 3.5-4 3.5c-.467 0-1.167-.067-2.1-.2-1.467-.2-3.033-.433-4.7-.7-1.333-.2-3.033-.3-5.1-.3-3.667 0-6.033.1-7.1.3l-4.2.8c-.133 0-.333.033-.6.1h-.6c-3.067 0-4.6-1.167-4.6-3.5 0-.933.3-1.717.9-2.35.6-.633 1.333-.95 2.2-.95.733 0 1.6.1 2.6.3 1 .2 1.733.3 2.2.3 3.4 0 5.1-2.5 5.1-7.5v-40.2c0-5-1.7-7.5-5.1-7.5-.533 0-1.333.083-2.4.25-1.067.167-1.867.25-2.4.25-2.067 0-3.1-1.067-3.1-3.2 0-2.333 1.5-3.5 4.5-3.5.267 0 .7.033 1.3.1l3.5.4c1.733.2 3.367.3 4.9.3 1.267 0 2.983-.133 5.15-.4 2.167-.267 3.75-.4 4.75-.4 2.6 0 4.333 1.633 5.2 4.9l.7 2.6zm95.4 61.8c-8.867 0-15.883-3.2-21.05-9.6-5.167-6.4-7.75-15.067-7.75-26 0-11.067 2.6-19.75 7.8-26.05 5.2-6.3 12.367-9.45 21.5-9.45 8.733 0 15.683 3.067 20.85 9.2 5.167 6.133 7.75 14.433 7.75 24.9 0 11.333-2.617 20.333-7.85 27-5.233 6.667-12.317 10-21.25 10zm.2-63.9c-6.4 0-11.367 2.467-14.9 7.4-3.533 4.933-5.3 11.867-5.3 20.8 0 9.067 1.767 16.083 5.3 21.05 3.533 4.967 8.467 7.45 14.8 7.45 6.2 0 11.117-2.583 14.75-7.75 3.633-5.167 5.45-12.183 5.45-21.05 0-8.933-1.733-15.817-5.2-20.65-3.467-4.833-8.433-7.25-14.9-7.25z" stroke="#fff" fill="#CECECF" filter="url(#a)" sketch:type="MSShapeGroup"/></g></svg>