<svg width="256" height="256" viewBox="0 0 256 256" xmlns="http://www.w3.org/2000/svg" xmlns:sketch="http://www.bohemiancoding.com/sketch/ns"><title>256</title><desc>Created with Sketch.</desc><g sketch:type="MSArtboardGroup"><path d="M44.63 85.21l.14.14h.49c.91 0 1.19-.42 1.96-.91l.77-.28c.14-.14.91-.49.91-.49.28-.14.91-.91 1.05-1.19.35-.28 1.12-1.05 1.26-1.26l.63-.28.7-.77 1.54-1.19.14-.14 4.62-6.3c.14-.14.56-1.05.77-1.19l.42-.91.49-.63c.42-.91.77-1.96 1.05-3.01l.14-.35.28-.42 1.26-2.45s.14-.35.14-.49c0-.28.63-2.1.63-2.45.42-1.82.91-3.64 1.19-5.6v-.63l.77-2.73c0-.14.14-1.96.14-2.17l.14-.7c0-.63.63-5.39.63-5.95.14-.77.49-1.26.28-2.17.21-.14 1.12-.63 1.26-.63.28-.14 2.31-.56 2.73-.56h1.05c.77-.21 1.68-.49 2.45-.77.28-.14 1.26-.35 1.26-.35l.42.49.14 1.82.14.49v1.47c0 1.26.35 2.31.35 3.71l-.14.28v3.08l-.21.14s-1.33.28-1.82.42h-.56c-.21 0-1.26.49-1.4.49h-.14c-1.26.14-4.27.63-4.27.63l-.77.28c0 .28 2.73 1.96 3.36 2.1.42-.14 2.73-.42 3.22-.56l.42-.21c.28-.14 1.26-.28 1.26-.28h1.05l2.73-.77 1.05-.14c1.05-.28 2.17-.77 3.22-.77.63 0 1.19.63 1.19 1.05 0 .63-.28 1.4-.56 1.89l-.21.28c-.28.91-.28 1.54-.7 2.31-.21.14-.91 1.19-.91 1.33l-.35 1.05-.14.35-.28.42c0 .21-.49 1.4-.63 1.54 0 .14-.77 1.05-.91 1.26-.91 1.47-1.05 2.38-2.17 3.78-.28.28-.42.63-.77.63-.42 0-.56-.35-.91-.63-.28-.14-1.05-1.05-1.19-1.19-.14-.35-1.82-2.17-1.96-2.45-.35-.49-1.12-.77-1.54-1.26l-.63-.77-1.05-1.19h-.28c-.49 0-.63.28-1.12.49l-.91.28-.28.42c-.28.49-1.19.49-1.19 1.12 0 .28.14.28.42.42.14 0 1.19.49 1.4.49.91.42 1.68 1.19 2.24 1.96l.21.14c.56.49 1.05.35 1.47.91.63.77 1.26 1.12 2.03 1.82.14.21 1.33 1.12 1.47 1.26.35.14.49.63.49 1.05l-2.59 2.59c-.14 0-.77.49-.91.63s-.63.77-.63.91l-.63.63-.42.28-1.26 1.05-2.73 1.82c-.14.21-.77.91-.91.91-.14.21-1.33.63-1.54.77-.14.21-1.33.77-1.47.91l-.35.21c-.42.14-.56.14-1.05.42-.77.49-1.4 1.26-2.1 1.54l-.63.14-.49.28c-1.33.49-3.15.49-4.27 1.89h.21c1.61 0 3.01-.63 4.55-1.26l.91-.28.91-.14 1.19-.63c.21 0 .77-.28.91-.28l.98-.49c1.96-.91 4.06-1.68 5.88-2.87l3.99-2.8c.91-1.05 2.17-2.1 3.22-3.01.28-.35 1.05-.91 1.05-.91h.49c1.82 0 2.24 1.82 3.15 3.01 1.68 2.17 3.5 4.27 5.32 6.3.21.28.77 1.33.98 1.68.14.28.14.7.56.7h.63c1.4 0 2.87-.28 4.13-.56.56-.14 1.96-.63 2.1-.63.49-.14 2.59-.42 3.08-.42.14 0 .14-.21.14-.35 0-.77-1.4-.77-1.82-.77-.14 0-1.05-.28-1.26-.28l-.7-.14c-1.4-.49-2.45-1.05-3.71-1.68-.56-.35-1.19-.49-1.82-.91-.28-.35-1.54-1.26-1.68-1.4l-1.33-.91-.21-.14-.42-.63c-.14-.28-2.17-1.96-2.31-2.31l-.28-.42c-.14-.14-.49-.63-.49-.63-.28-.42-.28-.28-.77-.56-.7-.49-1.19-.98-1.61-1.68l-.21-.35.21-.28c.14-.35 1.19-1.4 1.33-1.68.28-1.26.63-2.31 1.4-3.36l.42-.63.35-.56.7-.98c.21-.14.98-1.96 1.12-2.1l1.33-1.54s.35-.28.35-.42c.42-.77.42-1.68.91-2.45l.77-1.05c.28-.35.42-1.26.91-1.4.77-.28 1.96-.28 2.59-.28 0-.49-.35-1.12-.49-1.4-.14-.49-.77-.49-1.05-.91l-.14-.49c0-.14-.35-.42-.35-.42l-1.33-1.4-1.4-1.82c-.14-.14-.14-.14-.42-.14-1.12 0-1.4 1.05-2.31 1.4l-.77.14-.42.28c-.35.14-1.12.63-1.12.63l-.56.14c-.21 0-.49.14-.49.14l-1.19.63h-.35c-.28 0-.56 0-.56-.28v-.21c0-.42.14-1.68.14-1.82l.14-.77-.14-1.19v-2.59l.14-3.22c0-.14.28-.77.49-.91 0 0 .91-.49 1.19-.63.14 0 .42-.14.42-.14h.63l.77-.14h2.45c.91-.63 1.96-.77 3.01-.91h.35c.56 0 1.19.63 1.19 1.19 0 1.26-.28 2.17-.77 3.22-.28.77-.56.77-.56 1.82 1.19 0 1.68-1.33 2.24-2.24 0-.21.63-.63.63-.77l.28-.49.63-.42c.14-.21 1.54-1.4 1.82-1.68.14-.21.77-.77.91-.91.49-.49 1.4-.49 1.68-1.26v-.28c0-.35.14-.49-.14-.63l-.91-.63-.77-.91-2.1-2.1c-.21-.14-.63-.77-.77-.91s-.49-.14-.63-.14c-.77 0-1.96 2.24-2.59 2.73-.14.14-1.4.91-1.68 1.19-.63.49-1.54.49-2.1.63l-.63.28-1.05.14c-.49.21-.77.49-1.26.63h-.63l-.56.14h-.49c-1.19 0-1.19-1.47-1.19-2.24v-1.12c0-.14.14-1.47.14-1.68 0-.7-.14-1.19.14-1.82v-3.92l.49-.49c.42-.42.77-.28.77-.91 0-1.4-2.45-2.45-3.36-3.08l-1.12-.56c-.7-.63-1.33-1.54-2.38-1.54v.77l.14.28.42 1.05s.14.98.14 1.26v.42l.49.63.14.28c0 .21.35.63.35.77v2.31s.14.49.14.63l.14.42v1.4c0 .14.28 1.19.28 1.4v.28l-.14 1.54c0 1.05 0 2.45.14 3.5l.14.42-.14.14-1.05.21-1.4.42-1.47.63c-.21 0-1.68.28-1.82.28-.21 0-.77.49-.77.49-.35 0-1.89.28-2.17.28l-.63.28h-.14c-.28 0-.42-.14-.42-.42l-.14-.91c0-.14-.49-.91-.63-1.26 0-.14-.63-.7-.63-.91-.28-.42-.42-1.33-1.19-1.33-.14 0-.35 0-.35.14v1.4l.21 1.33v1.26c0 .14.14.7.14.91l-.14.28c0 .14-.21.77-.21.77v3.99c0 1.33-1.19 1.05-1.19 1.82 0 .42.42.56.42 1.05 0 .42.21 1.96.21 2.1 0 .21-.21 1.26-.35 1.54l-.28.77v1.05c0 .63-.14 2.8-.14 3.08-.14 1.05-.63 2.1-.77 3.22l-.14 1.19-.35.91c0 .14-.14.63-.14.63v.77c0 .14-.14.77-.28.91l-.35.63c-.14.42-.7 2.24-.91 2.73 0 .14-.14.56-.14.77-.28.42-1.33 2.87-1.54 3.36-.28.7-.42 1.47-.91 2.1l-1.05 1.05s-.28.77-.42.91l-.21.49c-.28.77-.56 1.19-1.05 1.82-1.96 2.59-4.13 5.04-6.72 7-.91.77-1.68 1.82-2.73 2.45zm-5.04-14.35c0 1.12.49 2.03 1.12 2.8l.56.56.63 1.26.28.42.21.35.14.42c.14.28.28.28.42.28.49 0 1.05-1.05 1.05-1.33 0-.49-.56-.63-.56-1.05v-1.89l-.14-2.38c0-.21-.21-.77-.21-.91v-.49c0-1.19.77-.91 1.68-1.05.21 0 .77-.14.77-.14l1.05-.21.49-.28c1.19-.28 2.31-.28 3.5-.63.14 0 .63-.14.63-.14l1.05-.14 1.19-.63h1.12l.91-.42 1.05-.14s.28-.21.28-.35c0-1.54-2.73-1.54-2.73-2.59v-.14l.14-.63.21-1.19.14-.63c.28-2.1.56-4.27.91-6.37 0-.35.56-2.94 1.05-3.08.49-.14 1.96-.14 1.96-.77v-.14c0-.14-.14-.42-.14-.42l-1.33-.77-2.94-2.94c-.77 0-.77.77-1.05 1.26l-.91 1.05-.28.42-.21.21c-.77.14-1.96.28-2.73.77l-.28.28h-.49c-.14 0-.56.28-.77.28l-.77.14-.42.49c-.63.28-1.54.28-2.17.42-.14 0-.7.35-.91.35h-.28l-.77-.77v-.14c0-.63.49-.91.77-1.4l.77-1.33.42-.49c.21-.14.63-.91.77-1.05.21-.14 1.54-1.54 1.68-1.68l.35-.63 1.05-1.05c.28-.35.42-1.26.77-1.68.56-.91 1.19-1.54 1.82-2.45.28-.49.63-2.31 1.4-2.31h1.47c.14 0 .14-.28.14-.42v-.14c-.14-.35-.56-1.4-.7-1.54l-.49-.77c0-.14-.14-.28-.14-.28s.14-.35.28-.35l.63-.42 1.82-.14 1.05-.35c.14 0 1.82-.14 2.31-.14h2.31l.28-.14v-.63c-.91-1.05-1.82-1.82-2.87-2.73-.49-.28-1.26-1.4-2.03-1.4-.56 0-.56 1.26-1.19 1.54l-.63.28c-.14.21-1.19.98-1.33.98h-1.68l-.63.14h-.77c-.77.14-1.82.77-2.45.91-1.33.28-3.22.56-4.55.77l-1.96.14c-.21 0-1.26.28-1.4.42-.77.21-4.13.49-4.9.49h-2.45c-.14 0-.14.14-.14.28 0 .77 1.12 1.12 1.68 1.4.35.14 1.05.63 1.26.63.56.42 1.19 1.19 1.96 1.19.91 0 1.82-.49 2.73-.63h.63l2.1-.56c1.68-.49 3.22-.91 4.9-1.26h.14c.49 0 .63.63.63 1.05 0 .77-1.05 2.59-1.54 3.36l-1.19 2.45c-.49.35-.77 1.4-1.12 1.82-.28.63-.28 1.12-.7 1.68-.21.14-1.26 1.54-1.4 1.68l-.28.77-.63.63c-.14.28-.28.91-.77.91-.28 0-.42-.14-.63-.28l-1.05-1.26h-.14c0 1.26.63 2.31.63 3.36 0 .63-.77 1.54-1.26 2.17-.77.91-1.33 1.82-1.96 2.87l-.63 1.19-1.05 1.4-.14.42c-.49.63-1.26.98-1.68 1.54-.14.14-.63.77-.63.77 0 .14-.28 1.26-.28 1.68v.28s.42 2.03.91 1.89c.14 0 .28-.35.28-.35v-1.96s.35-.49.49-.63l1.96-2.24.49-.63c.28-.49.91-.77 1.33-1.26.49-.42 1.68-2.38 2.17-2.38h.14c.63.42.63.91.63 1.47.14 1.68.42 3.22.42 4.9l-.14 3.36c0 1.05.14 2.1.14 3.22v1.68c-.14.77-.63 1.47-.63 2.24zm2.45-16.73v-.35c.35-.42 1.05-.77 1.54-.91l1.19-.28h1.26l.56-.28 1.89-.49c.28-.14 2.38-.77 2.87-.91l.77-.28h.14c.14.14.49.42.49.42v.63l-.21 1.33v1.4l-.28.91v1.05c0 .21-.14.63-.14.77l-.14 1.54-.14.77c0 .49-.35 3.08-.63 3.22-.77.42-1.4.42-2.17.77-.14 0-.77.28-.77.28-.14 0-.42.14-.42.14l-.91.14c-.49.21-1.54.77-1.96.77-.21 0-.98-.14-1.12-.14-.28 0-.56-.28-.56-.63 0-.14-.35-1.47-.35-1.96-.28-1.96-.56-3.78-.77-5.81v-1.68l-.14-.42zm-5.04-10.57c0 .35.14.77.49.98v-.35c0-.28-.14-.63-.49-.63zm38.15 28.84h.14c0 .14 0 .28-.14.28v-.28zm15.68-37.52c.14 0 .14.14 0 .14s-.14-.14 0-.14zm-35.77 112.27c0 .49 1.54 1.12 2.03 1.4.14 0 .56.63.77.63.14 0 .7.28.91.42h.14c.14 0 .56-.42.91-.56.14-.21 1.54-.63 1.68-.77l.28-.14.63-.49 1.19-.63c1.26-.56 2.73-1.19 3.85-1.96l.56-.63c.63-.42 1.54-.56 2.17-1.05.77-.49.77-.77 1.54-1.05l1.19-.49.49-.28c.14 0 .7-.35.91-.35.14-.14.77-.7.91-.91h-.49c-.42 0-.63 0-.91.21l-.77.7-1.19.21c-.63.14-1.4.42-1.96.56-.21 0-.98.21-1.12.21-.42.14-.77.56-1.33.56h-.14s-.49-.42-.63-.56l-.35-2.17v-2.87c0-.14.35-.49.49-.63l1.82-.14.49-.14c.91-.21 3.01-.35 3.64-1.12v-.14c0-.14-.14-.42-.14-.42l-2.03-2.03h-.14c-.77 0-1.54.77-2.1 1.12l-1.05.42-.35.14h-.14l-.49-.56c0-1.4-.28-2.8-.28-3.99 0-.77.28-.77.91-.91 1.96-.63 4.13-1.4 6.09-1.54l1.82-.14c.49 0 1.68-.14 2.03-.28l.42-.35.91-.14.49-.14.28.14.49.28.42.21c.63.28.63 1.19.77 1.82l.28 1.05v1.96l.21.63v1.05c-.49.91-3.22.77-4.13 1.05l-.91.35c-.14 0-1.05.14-1.26.14l-1.33.28-.35.21v.14c.49.77 1.68 2.1 2.59 2.1 1.89 0 3.36-1.05 5.18-1.05.35 0 .49.28.49.49l.14 1.33v3.85c-.28.42-1.19.91-1.68 1.05h-2.45l-2.38.77-.98.14-1.19.28c0 .49.14.49.49.63.7.28 1.68.63 2.38 1.05l.63.49h.77l.77-.35c.42-.14 1.19-.28 1.82-.28.63 0 .63.28 1.4.28h.42c.49-.28.35-.91.91-1.05h2.45l1.05-.28h1.26c.14 0 .56-.35.77-.35l1.82-.14c1.96-.14 3.92-.77 6.09-.56.14 0 .14-.21.14-.35v-.14c-.28-1.82-.91-1.05-1.82-2.17l-.91-1.19h-.35c-.56 0-1.05.28-1.61.49-.63.14-1.4.28-2.03.56l-.56.35h-.98s-.28.14-.42.14c-.63.28-1.05.63-1.68.63-.91 0-1.05-1.4-1.19-2.03l-.21-.42v-1.54l-.28-1.05v-.14l.49-.63.14-.91c0-.14.28-.14.42-.14.49 0 .63.28 1.05.28.49 0 .98-.28 1.4-.28l1.05-.21c.21 0 1.12-.28 1.26-.28.42 0 3.01-.14 3.5-.14l.42-.14c.21 0 1.4-.21 1.54-.21l.63-.14 1.05-.14.14-.14v-.14c-.14-.35-.42-.91-.42-.91l-2.45-2.45s-.28-.14-.49-.14c-.77 0-.77.42-1.33.77-1.05.42-2.45.56-3.5 1.05-.14 0-.49.14-.49.14-.77.14-1.33 0-1.96.28l-.77.49h-.14c-.35 0-.49-.14-.77-.28-.28-.21-.14-.35-.28-.63-.21-.35-.63-.14-.63-.63 0-.77 0-1.4.28-1.96l.49-.77v-.14c-.35-.14-1.4-1.26-1.54-1.54-.28-.28-.28-.28-.28-.63 0-.28.14-.28.42-.42l.91-.35.63-.28.77-.14 1.05-.35h1.54l1.05-.28h.63c.77 0 1.33.14 1.96.14 0-.91-.77-1.19-1.4-1.68-.91-.56-1.61-1.96-2.87-1.96-.42 0-1.19.49-1.68.63-.77.14-1.33.14-2.1.56l-.49.35-1.05.14-.91.28c-1.54.35-2.94.49-4.27.91h-.14l-.35-.28c.21-1.54-.28-2.87-.56-4.41v-.14c0-.63 1.19-.77 1.47-.77.21 0 1.26-.14 1.4-.14l.28-.21c.21-.14.91-.28.91-.28.21 0 1.54-.14 1.68-.14.35 0 2.17-.63 2.31-.63.14 0 1.4-.28 1.68-.28.77-.14 3.08-.49 3.36-.49h1.68l1.96-.28s.28-.28.49-.28c.14 0 1.19-.35 1.47-.35v-.42c-1.33-1.26-2.24-2.8-3.92-3.5-.91 0-1.96.91-2.94 1.19-.14 0-.7.28-.91.28-.14 0-.56.77-.77.77l-1.19.14-.28.21h-1.4l-3.01 1.05-1.12.14-.56.28s-1.26.21-1.68.21h-.14c-.35 0-.49-.35-.49-.63l-.14-2.17v-2.73c.14-.77 1.19-1.05 1.19-1.96 0-.14-.14-.49-.14-.49-.14-.28-1.19-1.33-1.54-1.47 0 0-.56-.35-.91-.49l-1.33-.63c-.49-.14-1.12-.56-1.54-.56h-.77c-.28 0-1.4 0-1.4.42 0 .28 1.12.91 1.4 1.05.28.35.28.49.63.77l.42.63v1.4s.14.28.14.42c0 0 .35.63.35.77 0 .28.14 2.1.14 2.45 0 .63.28 1.19.42 1.82 0 .63-.14.63.21 1.19l.28.35v.14c-.28.42-.63.77-1.05.77l-2.94.28-2.24.77c-.35 0-2.59.28-3.22.28h-.49l-.42.21c-.49 0-2.31.28-2.73.28h-1.26c-.56 0-.42.63-1.47.77-.21 0-1.89.14-2.03.14-.28 0-.77.28-.77.77 0 .28 1.68.91 2.03 1.05l1.19.63c.49.14 1.4.14 1.96.14h.63c.28 0 1.96-.77 2.31-.77l2.87-.42.63-.21c.42-.14.91-.42 1.33-.42h1.12l.91-.28h1.05l1.68-.35c.14 0 .14 0 .28.14.49.63.14 1.4.35 2.03 0 .14.14.77.14.77v.28c0 .14-.14.91-.14.91-.21.49-1.26.49-1.54.63l-.49.14-1.96.28c-1.05.14-1.96.63-3.08.77h-.7c-.21 0-.63.28-.77.28-.21 0-1.26.21-1.4.21l-1.05.42h-2.73c-.21 0-.49.35-.49.35v.28l.28.42.21.63c.14.49.91.14 1.19.35 0 0 .77.42 1.05.56.35.14.77.49.91.77.35.49.21.91.21 1.4l.28 1.68v1.05s.14.28.14.42l.14.35v.14l-.14.14c-.63.35-1.05.14-1.82.35l-1.05.28-2.17.14c-.14 0-.56.14-.77.14l-.42.35c-.35.14-1.68.42-2.03.42-.14 0-.14.35-.14.35 0 .56.77.56 1.26.91.28.14.42.7.77.91 0 0 .77.14.91.14h.28c.49 0 .91-.14 1.4-.35l1.19-.28.91-.42h1.4c.42.28.91 1.33.91 1.96v.91l.14.42v.35s-.14.63-.14.77c0 .77.14 1.33-.77 1.68-.14 0-1.96.42-2.17.42 0 0-.56.14-.7.35-.21 0-1.26.56-1.4.56-.28.14-2.87.91-3.22 1.12-.42.14-.77.28-.77.7zm-7.77 9.45c0 .98.77 1.54 1.12 2.17l.28.63.77.91.28.77c.14.14.63 1.19.77 1.19h.14l.35-.14c.14-.14 1.05-1.05 1.19-1.26v-.28c0-.14 0-.28-.14-.63.14-3.01-.14-5.74-.35-8.82v-1.54c0-.14-.14-1.05-.14-1.33l-.14-.91.14-1.12v-4.83c.14-.35.14-.49.14-.77v-.35c0-.14-.14-.7-.14-.91v-7.28c-.14-.49-.14-.91-.14-1.54 0-.49 0-.91.14-1.4v-5.32c-.14-.28-.14-.42-.14-.77l.91-3.64c0-.63-.14-.77-.42-1.19 0-.21-.49-.91-.63-1.12-.49-.42-1.26-1.05-1.82-1.05-1.05 0-1.4.91-1.82 1.68-.35.49-.49.77-.91 1.05-.77.77-2.03 1.26-3.08 1.54l-.77.14-.42.35c-.91.42-1.89.77-2.94.77-.77-.63-.77-2.03-1.19-2.8-.35-.56-.91-1.19-1.26-1.96l-.42-1.05c-.14-.35-.28-.14-.49-.14-.56 0-.77.28-.77.7 0 .63.63 1.68.98 2.45l.28.63s.14 1.05.14 1.54v.28l.28.77c0 .14.21.91.21 1.19v1.12l.14.42v2.17l.14.42c0 .14.14.63.14.63.14 1.54.28 3.08.49 4.55v.21c0 .56-.21 1.19-.21 1.61v.98c0 .14.21.7.21.91.14 1.33.14 2.87.14 4.27v.7l-.14 3.57c-.21.56-1.26.56-1.26 1.19 0 .63.49 1.05.63 1.68.14.28.42 1.68.42 1.96v.14c0 .35 0 1.26-.28 1.4-.63 0-1.05 0-1.68.14l-.63.35-1.96.14-.63.14-2.24.28-.14.21v1.19s.7.91 1.05 1.19c.28.35.77.21 1.05.35.77.42 1.4.56 2.17 1.05l.56.42c1.54 0 2.17-1.33 3.36-1.96l.77-.28.63-.63.42-.14 1.4-.77.77-.14.28-.14c.28-.35.14-.49.63-.77 1.05-.63 2.24-1.05 3.36-1.68.42-.35.56-.63 1.05-.77h.14c.14 0 .49.42.49.63v1.96l.14.91v.28l-.14 1.12c0 .14-.14.77-.14.77-.35.56-1.12.7-1.12 1.61zm4.13 15.61c.14.14.49.14.63.14h.42l.49-.14c.28-.21 1.68-.49 1.96-.49.91-.14 1.82-.28 2.73-.63 1.54-.56 2.94-1.19 4.41-1.82l.35-.14.77-.77.91-.56s.42-.35.42-.49l.35-.49 1.82-1.82.14-.28.14-.49.63-.56s.14-.35.14-.49l.14-.63c.14-.14.91-1.68.91-1.82l.14-1.33c0-.14.35-1.12.49-1.4l.14-.28.14-.91c.21-.77 1.4-1.12 2.03-1.26l1.33-.14c.35 0 2.17-.63 2.45-.63h1.05c.21 0 .77-.28.91-.28h.35c.28 0 .56.28.56.63l.21 1.47.14.49v.28l-.14 1.89c0 .42.14 1.19-.21 1.61v5.67s.21.63.35.91c.14.49.77 1.82.77 1.82.14.35 1.05 1.26 1.33 1.4l.49.14.63.28c.91.35 2.1.63 3.15.63h.35l4.97-.42h2.03c.14 0 .77-.21.77-.21.42 0 2.87-.42 3.36-.42l2.1-1.05c.63-.35.91-2.03.91-2.45 0-.63 0-1.26-.14-1.68 0-.14-.63-1.05-.63-1.26 0-.14-.14-.7-.14-.91l-.14-.56c-.49-2.8-.49-5.81-.77-8.54l-.14-.35h-.14c-.21 0-.35.35-.35.35v2.87l-.42.49c0 .56-.35 3.15-.35 3.78l-.28 1.54v.14l.14.49c0 .28-.42.7-.63 1.05l-.14.91c-.14.28-1.19 1.33-1.47 1.54-.21 0-1.26.42-1.54.56-1.4.49-2.94.77-4.41.77h-1.68c-.21 0-.63.14-.77.14h-2.45c-.63-.14-1.05-1.05-1.19-1.47-.21-.35-.49-1.26-.49-1.4v-6.37c.49-1.54.49-3.08.77-4.62 0 0 .14-.63.28-.77l.63-.42.14-.14.28-.49s.63-.42.63-.63v-.56c0-.21-.77-.77-.77-.91l-.28-.49-.49-.28c-.28-.21-1.33-1.26-1.47-1.54h-.21c-.56 0-.42.42-.7.77-.21.14-1.26 1.19-1.54 1.54-.35.28-.77.42-1.05.56-.21 0-1.26.77-1.4.77h-1.68c-.49.14-.63.49-1.05.63-.49 0-2.31.14-2.73.14h-.63c-.63 0-1.26-.77-1.54-1.4l-.77-1.47c-.14-.35-.42-1.12-.91-1.12-.14 0-.42 0-.42.21v.56c0 .49 0 .91.28 1.26v2.1c0 .14.14.77.14.77l-.42 1.4c0 .42.14.91.14 1.19 0 1.26-.14 2.59-.63 3.64 0 .21-.42.77-.42.91-.35.63-.21 1.4-.63 2.03-.14.14-1.26 1.33-1.4 1.54l-.14.28-.28.91c-.49.77-1.54.91-2.17 1.54l-.56.63c-.35.14-1.12.91-1.26.91l-.91.28-.28.14c-.77.49-.91 1.05-1.82 1.26l-.98.14c-.14 0-1.19.28-1.33.42l-.49.35-.28.14-1.19.28c-.21 0-.49.28-.49.49zm-8.05-35.56l2.73-.91 1.33-.14c.35-.14.35-.28.35-.49 0-.42-2.17-2.1-2.73-2.1-.63 0-2.03.42-2.45.77-.63.42-.77.77-1.54.77-.28 0-.49-.21-.63-.49v-3.36s-.14-.91-.28-1.19l-.14-.49.14-.56c0-.21.14-.98.14-.98v-2.73c.28-.42 1.05-.56 1.4-.77.42-.14 1.19-.56 1.68-.77l1.05-.14 2.59-.56.42-.21h.35c.14 0 .63.21.63.35v6.37l.14.49c0 .28.14 1.19.14 1.33v2.59c0 .21.14.77.14.77v.14c0 .21 0 .35-.14.49v2.59c0 2.45 0 4.76.14 7l.14 1.68v1.4l-.28.28-1.05.14c-.63.21-1.26.63-1.68.77-.21 0-1.12.35-1.26.35-.91.28-1.68.7-2.59.7-.56 0-1.05-1.19-1.05-1.82v-10.5c0-.77 1.82-.77 2.31-.77zm22.05-9.73c0-.14.21-.35.35-.35.14 0 .28 0 .28.21v.14c0 .14-.28.42-.28.42-.35 0-.35-.28-.35-.42zm-21.91 7.42c0-.14.14-.14.28-.14.35 0 .77 0 .77.35h-.91l-.14-.21zm54.11 17.85c-.14-.14-.14.91 0 .77s.14-.56 0-.77zm-30.66-25.27l.14-.14.21.28-.21.14-.14-.14v-.14zm-15.82 45.08c-.14 0-.14.35 0 .35s.14-.35 0-.35zm21.63-54.11c.14 0 .28.14.28.35-.14 0-.28-.21-.28-.35zm12.95-2.73h.14v.28h-.14v-.28zm-37.03 6.72h.28v.14c-.14 0-.28 0-.28-.14zm2.1 49.98v.14h.21v-.14h-.21zm29.61-55.3l.14-.21v.35l-.14-.14zm-22.4 108.84c0 3.92 3.08 7 7 7s7-3.08 7-7-3.08-7-7-7-7 3.08-7 7zm2.1 0c0-2.73 2.17-4.9 4.9-4.9 2.73 0 4.9 2.17 4.9 4.9 0 2.73-2.17 4.9-4.9 4.9-2.73 0-4.9-2.17-4.9-4.9zM194.5 80.17v.49c0 .14.63.91.77 1.05l1.4 1.4 1.05 1.33c.28.21.77.35 1.19.35.35 0 .77 0 .77-.49v-2.87c0-3.36-.14-6.58-.28-9.94 0-.91.14-1.19-.14-1.96v-3.99c-.14-.42-.14-1.05-.14-1.47v-1.12c0-.14 0-1.05.56-1.05l.63.63.49.14c.14 0 .91.63 1.05.77l.28.28.35.63c.56.91 1.33 1.68 1.96 2.45.14.14.77.91.77.91.14.14 1.33 1.33 1.47 1.54l.49.7.49.49.28.49 1.54 1.82 1.05 1.05.14.28c.14.14.49.77.49.77l.42.49c.35.28 1.68 1.82 1.82 2.1l.35.49c.28.42 1.19 1.33 1.82 1.33 2.73 0 5.32-.77 7.91-1.05.28-.14.91-.63.91-.91v-.14c-.14-.49-.28-.91-.77-1.05l-1.05-.21-.49-.14-.56-.14c-.49-.14-2.03-.77-2.17-.77l-.91-.63-2.31-1.33c-.14 0-.42-.35-.56-.49l-.63-.56-.91-.49c-.28-.14-1.68-1.19-1.96-1.4-.63-.56-3.22-3.29-3.85-3.92l-1.19-1.4-2.31-2.24-.28-.49c-.14-.14-.63-.77-.63-.77l-2.87-3.01c-.35-.35-.49-.49-.49-.77v-.21c1.26-1.05 2.31-.91 3.85-1.05l.91-.14 1.82-.14.42-.14c1.68-.14 3.36-.14 5.04-.49l.63-.14h1.05l.91-.14h2.59c.77 0 1.54-.35 2.31-.49l2.1-.14c.21 0 .21-.14.21-.28 0-.77-2.31-2.17-2.59-2.59-.21-.14-.63-.91-.77-1.12l-.63-.42c-.49-.49-.63-1.05-1.4-1.05h-.14l-.42.28-1.54.91c-.14.14-1.26.63-1.54.77l-.42.14-.63.49-.77.14c-.14 0-1.19.42-1.4.42l-1.33.21-2.03.56-1.33.21-.49.14-.56.14c-1.12.14-2.03.42-3.08.63l-2.45.28h-.14c-.28 0-.42-.14-.63-.28v-.63c0-1.4 0-3.22.35-4.55l.28-.49.14-.49c-.42.21-.56 0-.56-.42 0-.77.91-1.26.91-1.96v-.21s-.35-.28-.49-.42l-.91-.63-.91-.42-.91-.63-1.54-.77-1.05-.63h-.28c-.35 0-.63 0-.63.35v.14c.77 1.33 1.05 2.31 1.54 3.78l.56 1.82v.63l.14.49.21.91c.28.14.42.14.42.42 0 .35-.28.49-.28.77 0 .35.14.49.28.77 0 .49.14 2.17.14 2.59v.14c0 .14 0 .35-.14.35-2.1-.21-4.13.56-6.23.91l-.77.14c-.77.14-1.54.63-2.31.63h-1.96l-.91.14-.28.14h-1.12l-2.87.42c-1.05.21-2.1.21-3.08.63v.14l.21.21 5.32 2.59h.14c.91 0 1.54-.35 2.45-.63.77-.14 1.54-.28 2.31-.49 1.05-.28 2.1-.77 3.29-.91h.98l1.33-.28c.49 0 .63.63.63 1.05 0 .14-.91 1.54-1.05 1.82-.91 1.54-2.03 2.8-3.08 4.13l-.28.49-2.03 1.82c-1.19 1.33-2.24 2.59-3.64 3.78-.14.14-3.01 2.59-4.13 3.36l-.56.49c-1.54 1.19-2.45 2.1-4.13 3.15l-.63.35-.91.77c-.14.14-1.19.56-1.4.56l-.56.49-1.54.77c-.14.14-.77.42-.77.77h-.77l-.28.28c-.49.28-1.26.28-1.68.63l-.28.28c-.35.14-.63-.63-.63-.91 0-.42.28-.77.77-.77.42-.91.56-2.1.77-3.22l.14-1.47c0-.21.56-.77.56-.91.49-.77.35-1.68.63-2.45l.63-1.26s.14-.28.14-.42l.14-.77.49-.63c.42-.77.63-1.54 1.05-2.24 0-.21.49-.63.49-.77l.56-1.89.35-.42.14-.91.91-2.73c.14-.63.14-1.12.42-1.54l.63-.91s.14-1.26.28-1.68v-.14c0-.21.21-.77.21-.77l.77-1.54.28-1.54c0-.14.14-.56.14-.56.63-1.89 1.96-3.22 1.68-5.39.14-.14.14-.28.14-.42v-.35c0-.14-.14-.56-.14-.56h-.28s-.63 1.05-.77 1.47c-.77 1.54-1.26 3.08-1.82 4.62-.35.77-.91 1.54-1.4 2.24l-.14.49-.49.49c-.42.7-1.05 1.82-1.33 2.73 0 .14-.35.77-.35.77-.42 1.05-1.19 1.82-1.82 2.87-.56 1.19-1.19 2.59-1.68 3.78-.14.63-.56 1.12-.91 1.68l-.14.49c0 .14-.28.77-.42.91l-.49.77c-.49 1.05-.63 2.59-1.54 3.5-.28.28-1.33 1.4-1.68 1.68l-1.19-.49c-.28 0-.49.35-.49.49 0 1.96 1.12 3.36 2.03 4.9.14.14.77 1.47.91 1.68l.91 1.33.42.77.49.14.42.49h.21c.7-.28 1.33-.14 2.1-.28 1.4-.49 2.45-1.26 3.64-1.89l1.54-.56c.14 0 .63-.35.63-.35l.28-.28.91-.28.49-.35c.14-.14.56-.42.77-.42.56-.35 1.05-.49 1.68-.77l1.19-.63 1.05-.77c1.26-.77 2.45-1.33 3.5-2.24.14-.21 1.26-1.12 1.4-1.26l1.19-.91 1.12-.91.28-.28c.14-.21 1.05-.63 1.19-.77l.91-.91.77-.63.35-.28 1.05-1.26.28-.28c1.4-1.4 2.73-2.59 3.99-4.13 0 0 .28-.63.63-.63.14 0 .28.49.28.63 0 .49.28 2.45.28 2.73v2.45l-.28 1.82v.35l.14.56v3.71c0 .42-.28 2.24-.28 2.73-.35.91-1.26 1.33-1.26 2.24zm-15.54-31.71c0 .21 0 .49.14.49h.21c.28 0 1.33-.28 1.33-.28.35-.21 1.26-.49 1.4-.63l1.96-1.54.63-.28c.14-.21 1.68-1.12 1.82-1.26l.63-.28.7-.77c.49-.49 1.12-.63 1.54-1.05.14-.14.77-.91.91-.91l.77-.21.14-.28 2.03-2.59.14-.28c.91-1.26 1.96-2.45 3.01-3.71.49-.56 1.54-.7 1.54-1.61 0-.63-.42-1.12-.91-1.4l-.14-.14c-.77-1.12-1.4-2.03-1.82-3.22.28-.28.77-.91 1.19-.91h3.36s.49.14.63.28c.42.35.28 1.4.28 1.68l.14.77v1.05l.35 2.31-.14 1.4v.14l.14.77v5.04l.28.56.14.49c.77.91 1.82 1.33 3.08 1.33 3.01 0 6.23-.28 9.31-.28 2.59 0 4.97.63 7.63.63.14 0 .42-.14.42-.14l.14-.21c0-.42-.28-.91-.42-1.19-.14-.28-.63-1.05-.63-1.05l-1.54-1.54c-.28-.49-.77-1.19-1.33-1.19h-.21c-.28.14-1.47.42-1.82.56l-.91.49-1.33.28-.49.14h-1.68l-.77.21h-2.59l-.56-.21h-.21c-.56 0-1.19.35-1.82.35-1.05 0-1.19-1.12-1.19-1.82v-3.57l-.14-2.87v-.28c0-1.12 1.33-1.26 1.33-2.17 0-.77-.91-1.33-.91-2.24v-.35c.63-.77.91-1.05 1.82-1.19.49 0 2.59-.35 2.94-.35h1.68c.14 0 .56-.28.77-.28h.28c.14 0 .28 0 .42.28h1.54c.35 0 .63.21.63.49l-.63.63c-.42.77-.14 1.33-.28 2.1 0 .14-.35 1.4-.35 1.68-.28 1.26-.7 2.17-.7 3.36h.42l.77-.77.49-.77.28-.42.63-1.26 1.96-3.01.14-.14.91-.63c.77-.63 2.73-2.31 2.73-3.08 0-.28 0-.28-.28-.56-.14-.21-1.19-1.26-1.54-1.68 0-.21-.28-.35-.28-.35l-.77-.42c-.77-.77-1.4-1.54-2.31-2.03h-.42c-.91 1.12-1.82 2.17-2.94 2.94-.14.14-.42.28-.42.28l-1.05.14c-.21 0-.77.35-.91.35-1.12.42-2.03.91-3.08 1.19-2.59.28-5.32.63-7.91 1.05l-1.68.49c-1.96.42-3.99.63-5.95.77l-2.45.42-1.54.14c-.14 0-.56.21-.77.21-.28 0-1.33-.21-1.68-.21l-.28-.7-.28-.63-.14-1.96c-.35-.77-1.4-1.68-1.68-2.59l-.35-.98-.56-.56c-.49-.35-1.12-.91-1.54-.91 0 .91.42 1.68.63 2.59l.14 2.1.28 1.68c0 2.17-.42 4.62-.77 6.72l-.28.77-.14.91c-.21.28-.63 1.54-.77 1.68-.77 1.19-2.03.77-2.03 2.1v.49c.91 1.54 1.54 3.22 2.17 4.9 0 .14.28.14.42.14.77 0 .77-2.17 1.12-2.73.42-.91.77-1.68 1.05-2.59 0-.21.42-.77.42-.91l1.26-3.85c0-.14.14-.42.14-.42v-1.54c.14-.14.49-.63.77-.63l1.19-.14c.35 0 2.31-.49 2.59-.49h.91c.21 0 .98-.28 1.12-.28h.28c.49 0 .63.28 1.05.49.49.14 1.12.14 1.12.7l-.49 1.4v.49c0 .14-.28.7-.28.91l-.35 1.05c-.14.42-.77 1.82-.77 1.96l-.56.77-.35.63-.56.77-.21.42c-.56 1.26-1.47 2.31-2.38 3.36l-.35.28-.77.63c-.42.49-2.24 2.31-2.73 2.73-.63.49-.77.35-1.33 1.12l-.21.14c-.14 0-.7.42-.91.42l-1.19 1.12-.63.42v.14zm-15.4 6.72c0 .35.14 1.26.49 1.26 1.05 0 .91-1.68 1.05-2.31 0-.28.28-1.4.28-1.54.21-.63.63-1.33.77-1.96.49-1.4 1.12-2.73 1.68-4.13.35-.77 1.54-1.96 1.54-2.45 0-.91-.77-1.19-1.4-1.54-.28-.14-.28-.56-.56-.77-.63-.42-1.4-.28-2.17-.42l-.14-.14c-.63-.91-1.54-.91-2.45-1.26-1.33-.14-3.01-.14-4.41-.42-.28 0-.63 0-.63.28 0 1.4 2.94 2.17 3.71 2.73l.42.49c.63.42 1.54.77 1.96 1.4.63.56.63 1.47.98 2.24v.14c0 .21-.35 1.12-.35 1.26-.14.77-.28 1.33-.28 2.24v1.26c-.14 1.19-.49 2.45-.49 3.64zm4.62-19.18l.28.28c.77 0 1.54-2.59 1.82-3.01.77-.98 1.68-1.68 2.45-2.8l.42-.77c.21-.14 1.12-1.05 1.26-1.19.14-.14.14-.28.14-.49v-.14s-.28-.42-.42-.42l-.77-.49c-.35-.14-1.12.14-1.4-.14l-.42-.63c-.77-.77-2.94-1.19-3.99-1.68-.91-.42-1.82-.91-2.73-1.19l-1.26-.28c-.77-.35-1.19-.77-1.96-.77-.49 0-.63.14-.63.56 0 1.26 2.03 2.17 2.94 2.59.56.35 1.47.91 2.1 1.4.63.49.91.77 1.54 1.4.63.77 1.05 1.19 1.05 2.1 0 1.54-.28 2.94-.42 4.41v1.26zm27.09 24.5c0-.14 0-.28.35-.28h.14l-.35.77c-.14 0-.14-.28-.14-.49zm-29.12-17.22l.14.14c0 .21-.28.21-.42.21 0-.21 0-.35.28-.35zm2.31 21.35c0-.14.14-.14.28-.14 0 .14 0 .49-.14.49l-.14-.21v-.14zm28.98 14.07c.14 0 .14.28 0 .28-.21 0-.21-.28 0-.28zm-2.31-50.96h.28c0 .14-.14.14-.28.14v-.14zm2.1 31.29c0 .14-.14.14-.14 0 0-.21.14-.21.14 0zm-30.45 10.92h.14v.21h-.14v-.21zm48.93-44.8c0 .14-.14.14-.14 0s.14-.14.14 0zm-10.08 28.98h.14v.14h-.14v-.14zm-44.03-31.57h.14v.14l-.14-.14zm8.54 145.24c.7 1.19 1.68 2.59 2.59 3.64l.42.49.35.56.28.14s.42.21.63.21h.14c.91 0 1.33-1.4 1.33-2.17l-.14-1.82c0-.28.14-.77.49-.91h1.68s1.47-.49 2.1-.63c.14 0 .49-.14.49-.14l1.82-.91c1.68-.63 3.5-1.05 5.04-1.82.77-.28 1.05-.91 1.96-1.05.42-.35 2.59-1.68 3.08-2.03 0 0 .42-.28.56-.42l.91-.77c.91-.63 1.68-1.26 2.59-1.96h.49c.14.14 1.05.7 1.19.91.14.14 1.26.56 1.4.77 1.05.7 1.68 1.47 2.59 2.24l1.33.91c.77.49 1.4 1.26 2.17 1.68l.77.49c.42.28.63.77.91 1.05.63.49 1.19.63 1.82 1.05 1.05 1.12 2.1 2.17 3.36 2.94.28.14.91.56.91.56l.77.77s.42.14.63.14h.14c.42 0 .77-.14 1.05-.42 1.82-.49 3.5-1.05 5.32-1.4.49-.14 2.94-.42 3.36-.42.49-.35.63-.35.63-.77 0-.91-1.26-.91-1.82-.91l-1.68-.14c-.63-.21-.91-.63-1.54-.77l-1.68-.49-.49-.28c-.7-.35-1.47-.63-2.24-.91l-.35-.14-.42-.35c-.14 0-1.19-.42-1.4-.42-.56-.35-1.05-.77-1.68-1.12-.56-.28-1.19-.28-1.68-.56-1.19-.77-2.1-2.03-3.5-2.45l-.42-.14c-.49-.14-2.17-1.12-2.45-1.26l-.63-.42-.77-.14-.56-.49c-.14 0-.49-.28-.49-.28-.63-.35-2.45-1.12-2.45-1.82v-.21c.35-.28 1.4-1.96 1.68-2.24l1.26-1.26.28-.42c.14-.14 1.82-1.82 1.96-2.03.21-.14.63-.91.63-1.05l.14-.14.77-.63.14-.14.91-1.82.63-.77c.14-.28.77-.91.77-1.05.42-.63.28-.91.91-1.4l2.1-3.36.35-.56.77-1.12c0-.14.28-.77.42-.91l.14-.42.63-.91c.14-.21.77-1.68.91-1.82 0-.21.63-.63.63-.77.14-.35 0-.77.42-.91.21 0 1.12-.35 1.26-.35l.91-.28c.28-.14.91-.49.91-.91 0-.14-.28-.63-.49-.77l-.42-.77-1.19-1.82-.49-.63c-.28-.63-.28-1.82-1.05-2.31h-.14c-.35 0-.63 0-.91.21v.91c0 .14-.35 1.05-.63 1.05l-.63-.14h-.14c-.49 0-.77.77-.91.91-.77.77-1.96 1.68-3.08 1.96l-.77.14-.56.35s-.63.14-.77.14-1.96.28-2.17.28c-.28 0-1.33.49-1.47.63-.21 0-.63.42-.63.63-.28-.35-.63-.35-.91-.35-.63 0-1.05.14-1.54.14-.28 0-.63-.14-.63-.56l.35-.77c.14-.14.42-.77.42-.91s.77-1.05.77-1.26c.49-.77.49-1.05 1.05-1.82.63-.56 1.82-.14 1.82-1.33 0-.77-1.19-2.45-1.82-3.08-.42-.63-1.33-1.05-1.33-2.1v-.21c.42-1.05 1.33-.91 2.24-.91.21 0 1.12-.14 1.26-.14h2.24c.49 0 2.17-.14 2.45-.14l1.4-.28c.28 0 1.96-.35 2.45-.35l1.96-.14.49-.14h3.64l.63-.14h5.6c.14 0 .49-.14.63-.35v-.28c-.63-1.19-1.54-1.96-2.45-2.87l-.28-.35-.49-.56-1.96-2.03h-.35c-.42 0-.7 0-1.05.14l-.91.77c-.77.49-1.68 1.26-2.59 1.4l-1.33.14-2.45.77c-.21 0-.77.14-.91.14-.21 0-.63.35-.77.35l-1.68.14c-1.68.14-3.36.28-5.04.91h-.14c-.49 0-2.03.14-2.03.14l-.56.14h-1.12l-.42.14h-1.19c-.63 0-1.12.49-1.68.49-.35 0-.49-.14-.49-.49 0-.91.28-1.68.49-2.45l.14-2.73c.14-.77.91-.91.91-1.68 0-1.05-1.26-1.05-1.96-1.33-.21-.14-1.54-.77-1.68-.91-.49-.35-.91-.63-1.4-.77-.49-.14-.77-.14-1.19-.35l-1.89-.91h-.42c-.28 0-1.26 0-1.26.49v.14c1.4.77 2.8 1.54 3.22 3.08 0 .14.49 1.33.49 1.68l.14.7c.28.91.77 1.54.91 2.45v.77l.14 1.54v.28c0 .14 0 .63-.28.77-3.64.63-7.49.91-11.13 1.26h-.91c-.77 0-1.54.28-2.31.42l-1.82.14-.77.21c-.42 0-1.05-.21-1.54.14-.56 0-3.15.28-3.78.28h-1.05l-.63.14h-2.17l-1.19.35c-.14 0-.77.14-.77.14-.91.14-1.96.14-2.87.14l-2.59-.14c-.77 0-1.05.28-1.05 1.19 0 .91 3.29 1.68 4.06 1.82.35.21.77.49.91.63.77.49 1.54.63 2.45.63h.49l.91-.49c.91-.28 2.1-.28 3.01-.42.21 0 1.54-.49 1.68-.49h1.12c.7 0 1.47-.28 2.24-.42l5.18-1.12h.14c.63 0 1.26.35 1.4.91-.49.77-.63 1.4-.91 2.17s-.77 1.4-1.19 1.96c-.35.49-.35.91-.63 1.4-.49.77-1.05 1.33-1.54 1.96-.14.35-.91 1.26-.91 1.26-.91 1.05-1.96 2.24-2.87 3.36 0 0-.35.28-.49.42-.14.14-1.4 1.19-1.54 1.4l-.28.42s-.28.35-.49.49c-1.05.91-1.96 1.68-2.87 2.73l-.91 1.05c-.63.63-2.87 3.08-3.22 3.36l-.91.77c-.28.28-3.36 3.22-3.78 3.5-.35.28-.77.49-1.05.91 0 .14-.35.77-.49.91 0 .35.14.77.49.77.56 0 2.59-1.82 3.15-2.31.14-.14 1.12-.91 1.4-1.05l.42-.28c.35-.35.63-.77.91-1.05l2.31-1.54.91-.91.77-.49c.49-.28.77-.91 1.19-1.33l1.26-.91.63-.35c.28-.28.7-1.05 1.33-1.05.35 0 .63.42.63.77 0 .42.14 2.24.14 2.73l.49 1.19v.21c0 .42-.21.91-.21 1.47v.63l.21.91-.21.77v.28c0 .49.21.98.21 1.54 0 1.26-.21 2.31-.35 3.5 0 .35-.14 1.26-.14 1.4v2.1c0 .49-.14 2.17-.14 2.45l-.14.77v1.82c0 .14-.14.91-.14 1.12v1.47s-.63 1.12-.77 1.54c0 0-.35.28-.35.49 0 .14-.56.56-.56.77v1.05zm5.6-.91c0-2.03 0-4.13-.14-5.95 0-.35-.14-1.68-.14-1.82l-.14-.63v-.14l.28-2.31c0-.28-.14-2.1-.14-2.45v-1.82c0-1.96.14-3.78.14-5.67 0-.7-.14-1.33-.14-2.1 0-.91.14-1.96.28-2.87l.14-.35c.49-.77.91-1.19.91-2.24v-.35l-1.68-1.68c-.14-.14-.56-.42-.7-.42v-.35c0-.28.14-.56.42-.91.91-1.05 2.45-1.82 3.5-2.73l1.68-1.54.77-.56.28-.49c.63-.77 1.54-1.19 2.31-1.96.28-.35 1.82-1.82 2.17-2.17l.28-.14 1.33-.14v-.28c0-.21 0-.49-.14-.77-.14-.35-.91-1.68-1.05-1.82 0-.21-.77-.63-.77-.77-.14-.21-.14-.35-.14-.63 0-.49.28-.91.77-1.05.14 0 1.33-.21 1.54-.21 2.24-.28 4.41-.56 6.65-.7h.98l.42-.21c.77-.14 1.82-.28 2.59-.28.14 0 .28.14.49.28v.21c-.21 1.47-.35 3.5-.77 4.97l-.35.63c-.28.77-.42 1.54-.77 2.31l-.14.63s-.42.56-.56.91l-.49.56-.14.35v.77c-.14.91-.77 1.68-1.26 2.38-.14.21-.7 1.68-.91 1.89l-.56.7c-.63.98-1.12 2.03-1.68 2.94l-.63.91c-.63 1.05-1.05 2.31-1.82 3.22-.91 1.05-1.96 2.24-2.87 3.36 0 0-.35.42-.49.56-.14.14-1.19 1.82-1.4 2.03-.14.14-.14.14-.28.14h-.14c-.14-.14-1.26-.77-1.54-.77h-2.1c-.91.28-2.17.91-2.17 1.96v.49l1.05.28c.35 0 2.8.77 3.08.77l1.05.14.63.35s.42.14.63.14l.7.14 1.89.63.7.14c.35.14 1.4.63 1.54.77l.77.56.28.21.98.28c.7.28 1.19.77 1.96 1.05l.77.14c.28.21.14.35.14.49 0 1.05-1.05 1.54-1.82 2.1-1.68 1.54-3.36 2.8-5.18 3.99-1.4.91-3.08 1.54-4.62 2.31-.7.28-1.33.91-2.1 1.19l-2.31 1.05c-.28.21-.77.77-1.19.77h-.14c-.14 0-.49-.28-.49-.42zm18.48-13.16c-.35-.28-1.4-1.33-1.68-1.68 0 0-.49-.14-.63-.28-.49-.14-1.68-.77-1.68-.77l-1.19-.28-.21-.14c-.28-.35-1.82-1.12-2.1-1.26l-.49-.14c-.42-.14-.56-.42-.56-.91 0-.14 0-.28.14-.49l3.5-3.5c.42-.56 1.05-.91 1.54-1.47l.28-.49 1.54-1.96c.28-.49.63-2.03 1.33-2.03l.35.21c.63 1.05 1.54 2.1 2.1 3.15l.14.77c.21.63.63 1.4.98 2.03l.28.42c.14.63 0 1.96 1.05 1.96.28 0 1.05-.28 1.26-.77l.14-.56c.28-.77 1.19-1.26 1.19-2.17v-.14c-.28-.91-1.19-1.68-1.82-2.31l-.77-.7c-1.05-.98-1.96-1.89-2.87-2.94 0 0-.63-.42-.63-.63v-.42c0-.77.49-1.26.91-1.96.14-.35.63-2.31 1.4-2.17 0 0 .42.14.56.28.91.49 1.68 1.12 2.8 1.12.56 0 1.47-.35 2.1-.49.28 0 1.26-.28 1.26-.28l.42-.35c.14 0 .91-.28 1.19-.28.21 0 1.12-.14 1.26-.14.77-.14 1.54-.63 2.45-.63.28 0 .42.35.42.63 0 .91-.56 1.96-1.05 2.73l-.49.49c-.42.56-.7 1.47-1.05 2.1-.56 1.26-1.19 2.17-1.96 3.22l-.14.28c-.35.63-.63.91-.91 1.54l-.63 1.05-1.68 2.17-.14.28-.14.63s-.49.77-.63 1.05c-.28.49-.91.91-.91 1.54l.63.63c0 .28-.21.56-.49.56-.14 0-.14-.28-.42-.28-.77 0-.77.42-1.26.91l-1.19 1.19c-.14.21-.91 1.26-1.12 1.4-.14.28-.56.63-.91.63-.42 0-1.05-.14-1.47-.35zm7.77-37.03c.14-.28.56-.42.91-.42v.14l-.77.42-.14-.14zm-2.17 7.49c0-.14.14-.14.35-.14 0 .14 0 .42-.21.42l-.14-.14v-.14zm-3.64 31.57l.14-.14h.14l.14.14-.14.14h-.14l-.14-.14zm-9.38 66.84c0 2.24 1.68 4.06 3.85 4.2-.98 3.64-4.06 5.6-4.9 6.16l.7 1.19c2.03-.7 8.54-4.41 8.75-11.2v-.35c0-2.31-1.89-4.2-4.2-4.2-2.31 0-4.2 1.89-4.2 4.2z" sketch:type="MSShapeGroup"/></g></svg>