<?xml version="1.0" encoding="UTF-8" standalone="no"?><svg width="411px" height="411px" viewBox="0 0 411 411" version="1.1" xmlns="http://www.w3.org/2000/svg" xmlns:xlink="http://www.w3.org/1999/xlink"><defs><filter x="-50%" y="-50%" width="200%" height="200%" filterUnits="objectBoundingBox" id="filter-1"><feOffset dx="1" dy="2" in="SourceAlpha" result="shadowOffsetOuter1"></feOffset><feGaussianBlur stdDeviation="3.5" in="shadowOffsetOuter1" result="shadowBlurOuter1"></feGaussianBlur><feColorMatrix values="0 0 0 0 0   0 0 0 0 0   0 0 0 0 0  0 0 0 0.35 0" in="shadowBlurOuter1" type="matrix" result="shadowMatrixOuter1"></feColorMatrix><feMerge><feMergeNode in="shadowMatrixOuter1"></feMergeNode><feMergeNode in="SourceGraphic"></feMergeNode></feMerge></filter></defs><g id="Page-1" stroke="none" stroke-width="1" fill="none" fill-rule="evenodd"><g id="Version_Icon" transform="translate(4.933013, 4.750000)" stroke="#CECECF"><ellipse id="Inner" stroke-width="5" cx="200.349795" cy="200.439268" rx="185.755088" ry="185.755088"></ellipse><circle id="Outer" stroke-width="10" cx="200.5" cy="200.439268" r="200"></circle></g><path d="M157.383013,240.8 C148.916304,240.8 142.26637,237.683365 137.433013,231.45 C132.599655,225.216635 130.183013,216.633388 130.183013,205.7 C130.183013,194.566611 132.699654,185.783366 137.733013,179.35 C142.766371,172.916634 149.649636,169.7 158.383013,169.7 C166.716388,169.7 173.299655,172.783302 178.133013,178.95 C182.96637,185.116697 185.383013,193.466614 185.383013,204 C185.383013,215.400057 182.883038,224.3833 177.883013,230.95 C172.882988,237.516699 166.049723,240.8 157.383013,240.8 L157.383013,240.8 Z M158.183013,177.1 C145.916285,177.1 139.549682,186.266575 139.083013,204.6 L139.083013,206.1 C139.083013,214.833377 140.682997,221.583309 143.883013,226.35 C147.083029,231.11669 151.616317,233.5 157.483013,233.5 C163.483043,233.5 168.182996,230.900026 171.583013,225.7 C174.98303,220.499974 176.683013,213.333379 176.683013,204.2 C176.683013,195.466623 175.083029,188.76669 171.883013,184.1 C168.682997,179.43331 164.116376,177.1 158.183013,177.1 L158.183013,177.1 Z M203.283013,240.3 C201.549671,240.3 200.083019,239.683339 198.883013,238.45 C197.683007,237.21666 197.083013,235.733342 197.083013,234 C197.083013,232.266658 197.683007,230.783339 198.883013,229.55 C200.083019,228.31666 201.549671,227.7 203.283013,227.7 C205.016355,227.7 206.483007,228.31666 207.683013,229.55 C208.883019,230.783339 209.483013,232.266658 209.483013,234 C209.483013,235.733342 208.883019,237.21666 207.683013,238.45 C206.483007,239.683339 205.016355,240.3 203.283013,240.3 L203.283013,240.3 Z M262.283013,176.8 L262.283013,211.3 L274.083013,211.3 C276.283024,211.3 277.383013,212.433322 277.383013,214.7 C277.383013,216.966678 276.216358,218.1 273.883013,218.1 L262.283013,218.1 L262.283013,224.2 C262.283013,229.733361 263.782998,232.5 266.783013,232.5 C267.583017,232.5 268.683006,232.433334 270.083013,232.3 C271.48302,232.166666 272.183013,232.1 272.183013,232.1 C274.983027,232.1 276.383013,233.233322 276.383013,235.5 C276.383013,237.833345 275.183025,239 272.783013,239 C271.316339,239 269.349692,238.800002 266.883013,238.4 C264.816336,238.066665 262.249695,237.9 259.183013,237.9 C257.316337,237.9 254.516365,238.099998 250.783013,238.5 C247.049661,238.900002 244.249689,239.1 242.383013,239.1 C239.849667,239.1 238.583013,237.966678 238.583013,235.7 C238.583013,233.299988 240.116331,232.1 243.183013,232.1 C243.849683,232.1 244.833006,232.166666 246.133013,232.3 C247.433019,232.433334 248.416343,232.5 249.083013,232.5 C252.416363,232.5 254.083013,229.733361 254.083013,224.2 L254.083013,218.1 L223.083013,218.1 C220.016331,218.1 218.483013,216.76668 218.483013,214.1 C218.483013,213.033328 218.849676,211.966672 219.583013,210.9 L246.083013,178 C248.883027,174.533316 250.949673,172.283338 252.283013,171.25 C253.616353,170.216661 255.149671,169.7 256.883013,169.7 C260.483031,169.7 262.283013,172.066643 262.283013,176.8 L262.283013,176.8 Z M228.183013,211.3 L254.083013,211.3 L254.783013,178.6 L228.183013,211.3 Z" id="tem-2" fill="#CECECF" filter="url(#filter-1)"></path></g></svg>