<svg width="412" height="412" viewBox="0 0 412 412" xmlns="http://www.w3.org/2000/svg"><title>Version Icon</title><defs><filter x="-50%" y="-50%" width="200%" height="200%" filterUnits="objectBoundingBox" id="a"><feOffset dx="1" dy="2" in="SourceAlpha" result="shadowOffsetOuter1"/><feGaussianBlur stdDeviation="3.5" in="shadowOffsetOuter1" result="shadowBlurOuter1"/><feColorMatrix values="0 0 0 0 0 0 0 0 0 0 0 0 0 0 0 0 0 0 0.35 0" in="shadowBlurOuter1" result="shadowMatrixOuter1"/><feMerge><feMergeNode in="shadowMatrixOuter1"/><feMergeNode in="SourceGraphic"/></feMerge></filter></defs><g transform="translate(5.933 4.75)" fill="none"><ellipse stroke="#cececf" stroke-width="5" cx="199.35" cy="200.439" rx="185.755" ry="185.755"/><circle stroke="#cececf" stroke-width="10" cx="199.5" cy="200.439" r="200"/><path d="M123.831 235.55c-8.467 0-15.117-3.117-19.95-9.35-4.833-6.233-7.25-14.817-7.25-25.75 0-11.133 2.517-19.917 7.55-26.35 5.033-6.433 11.917-9.65 20.65-9.65 8.333 0 14.917 3.083 19.75 9.25s7.25 14.517 7.25 25.05c0 11.4-2.5 20.383-7.5 26.95s-11.833 9.85-20.5 9.85zm.8-63.7c-12.267 0-18.633 9.167-19.1 27.5v1.5c0 8.733 1.6 15.483 4.8 20.25 3.2 4.767 7.733 7.15 13.6 7.15 6 0 10.7-2.6 14.1-7.8 3.4-5.2 5.1-12.367 5.1-21.5 0-8.733-1.6-15.433-4.8-20.1-3.2-4.667-7.767-7-13.7-7zm45.1 63.2c-1.733 0-3.2-.617-4.4-1.85-1.2-1.233-1.8-2.717-1.8-4.45s.6-3.217 1.8-4.45c1.2-1.233 2.667-1.85 4.4-1.85 1.733 0 3.2.617 4.4 1.85 1.2 1.233 1.8 2.717 1.8 4.45s-.6 3.217-1.8 4.45c-1.2 1.233-2.667 1.85-4.4 1.85zm38.7-40.6l20.8-20.4h-23.2c-2.6 0-4.333.167-5.2.5-1.667.533-2.5 1.833-2.5 3.9 0 .667.067 1.633.2 2.9s.2 2.233.2 2.9c0 3.467-1.167 5.2-3.5 5.2-2.267 0-3.4-1.433-3.4-4.3 0-.8.05-2.017.15-3.65.1-1.633.15-2.85.15-3.65 0-1.867-.033-3.267-.1-4.2-.067-.933-.1-1.967-.1-3.1 0-1.8.333-2.917 1-3.35.667-.433 2.333-.65 5-.65h24.6c1.333 0 3.6-.067 6.8-.2 1.6-.067 3.467-.1 5.6-.1 3.933 0 5.9 1.2 5.9 3.6 0 1.533-.833 3.1-2.5 4.7l-18.4 17.7c.4 0 .933-.033 1.6-.1h1.3c5.667 0 10.317 1.817 13.95 5.45 3.633 3.633 5.45 8.283 5.45 13.95 0 7.067-2.583 12.833-7.75 17.3-5.167 4.467-11.817 6.7-19.95 6.7-7.467 0-13.7-1.817-18.7-5.45s-7.5-8.183-7.5-13.65c0-3.133.9-5.783 2.7-7.95 1.8-2.167 4.033-3.25 6.7-3.25 1.733 0 3.15.517 4.25 1.55s1.65 2.383 1.65 4.05c0 3.333-1.967 5-5.9 5h-1.1v.7c0 3.267 1.817 6.1 5.45 8.5 3.633 2.4 7.917 3.6 12.85 3.6 5.533 0 10.067-1.583 13.6-4.75 3.533-3.167 5.3-7.217 5.3-12.15 0-8.667-4.933-13-14.8-13-2.6 0-5.3.3-8.1.9-.6.133-1.167.2-1.7.2-1.6 0-2.4-.867-2.4-2.6 0-.8.533-1.733 1.6-2.8zm47.105 39.951c-1.071 0-1.978-.381-2.719-1.143-.742-.762-1.112-1.679-1.112-2.75s.371-1.988 1.112-2.75c.742-.762 1.648-1.143 2.719-1.143s1.978.381 2.719 1.143c.742.762 1.112 1.679 1.112 2.75s-.371 1.988-1.112 2.75c-.742.762-1.648 1.143-2.719 1.143zm27.872.309c-5.232 0-9.342-1.926-12.329-5.778-2.987-3.852-4.481-9.157-4.481-15.913 0-6.88 1.555-12.308 4.666-16.284 3.111-3.976 7.364-5.964 12.762-5.964 5.15 0 9.218 1.905 12.206 5.716 2.987 3.811 4.48 8.971 4.48 15.481 0 7.045-1.545 12.597-4.635 16.655-3.09 4.058-7.313 6.087-12.669 6.087zm.494-39.367c-7.581 0-11.515 5.665-11.804 16.995v.927c0 5.397.989 9.569 2.966 12.515 1.978 2.946 4.779 4.419 8.405 4.419 3.708 0 6.613-1.607 8.714-4.82 2.101-3.214 3.152-7.643 3.152-13.287 0-5.397-.989-9.538-2.966-12.422-1.978-2.884-4.8-4.326-8.467-4.326z" stroke="#fff" fill="#cececf" filter="url(#a)"/></g></svg>